<svg xmlns="http://www.w3.org/2000/svg" xmlns:xlink="http://www.w3.org/1999/xlink" width="76" zoomAndPan="magnify" viewBox="0 0 56.879997 58.499998" height="78" preserveAspectRatio="xMidYMid meet" version="1.0"><defs><clipPath id="61a14ee095"><path d="M 0.179688 0 L 56.578125 0 L 56.578125 57 L 0.179688 57 Z M 0.179688 0 " clip-rule="nonzero"/></clipPath><clipPath id="5a55beb242"><path d="M 0.179688 28 L 56.578125 28 L 56.578125 57.261719 L 0.179688 57.261719 Z M 0.179688 28 " clip-rule="nonzero"/></clipPath><clipPath id="aa9556eec1"><path d="M 0.179688 0 L 56.578125 0 L 56.578125 57 L 0.179688 57 Z M 0.179688 0 " clip-rule="nonzero"/></clipPath><clipPath id="308284fe54"><path d="M 0.179688 28 L 56.578125 28 L 56.578125 57.261719 L 0.179688 57.261719 Z M 0.179688 28 " clip-rule="nonzero"/></clipPath></defs><g clip-path="url(#61a14ee095)"><path fill="#f9d967" d="M 56.625 28.230469 C 56.625 28.402344 56.621094 28.570312 56.617188 28.742188 C 56.34375 44.09375 43.816406 56.453125 28.402344 56.453125 C 12.988281 56.453125 0.460938 44.09375 0.1875 28.742188 C 0.183594 28.570312 0.179688 28.402344 0.179688 28.230469 C 0.179688 12.644531 12.816406 0.0117188 28.402344 0.0117188 C 43.988281 0.0117188 56.625 12.644531 56.625 28.230469 Z M 56.625 28.230469 " fill-opacity="1" fill-rule="nonzero"/></g><path fill="#2e0266" d="M 16.101562 28.742188 C 16.097656 28.613281 16.09375 28.488281 16.09375 28.359375 C 16.09375 21.570312 21.617188 16.046875 28.40625 16.046875 C 35.195312 16.046875 40.71875 21.570312 40.71875 28.359375 C 40.71875 28.488281 40.710938 28.613281 40.707031 28.742188 C 40.507812 22.125 35.066406 16.808594 28.40625 16.808594 C 21.742188 16.808594 16.300781 22.125 16.101562 28.742188 Z M 28.402344 46.082031 C 18.742188 46.082031 10.890625 38.351562 10.683594 28.742188 C 10.683594 28.867188 10.679688 28.992188 10.679688 29.121094 C 10.679688 38.910156 18.613281 46.84375 28.402344 46.84375 C 38.191406 46.84375 46.125 38.910156 46.125 29.121094 C 46.125 28.992188 46.125 28.867188 46.121094 28.742188 C 45.917969 38.351562 38.0625 46.082031 28.402344 46.082031 Z M 28.402344 46.082031 " fill-opacity="1" fill-rule="nonzero"/><path fill="#5801c6" d="M 28.402344 10.640625 C 18.613281 10.640625 10.679688 18.574219 10.679688 28.363281 C 10.679688 28.488281 10.683594 28.613281 10.683594 28.742188 C 10.886719 38.355469 18.742188 46.085938 28.402344 46.085938 C 38.0625 46.085938 45.917969 38.355469 46.121094 28.742188 C 46.121094 28.617188 46.125 28.488281 46.125 28.363281 C 46.125 18.574219 38.191406 10.640625 28.402344 10.640625 Z M 40.703125 28.742188 C 40.503906 35.355469 35.0625 40.671875 28.402344 40.671875 C 21.742188 40.671875 16.300781 35.355469 16.101562 28.742188 C 16.097656 28.613281 16.09375 28.488281 16.09375 28.359375 C 16.09375 21.570312 21.617188 16.046875 28.40625 16.046875 C 35.195312 16.046875 40.71875 21.570312 40.71875 28.359375 C 40.714844 28.488281 40.710938 28.613281 40.703125 28.742188 Z M 40.703125 28.742188 " fill-opacity="1" fill-rule="nonzero"/><g clip-path="url(#5a55beb242)"><path fill="#5801c6" d="M 56.617188 28.742188 C 56.621094 28.910156 56.625 29.082031 56.625 29.25 C 56.625 44.835938 43.988281 57.472656 28.402344 57.472656 C 12.816406 57.472656 0.179688 44.835938 0.179688 29.25 C 0.179688 29.082031 0.183594 28.910156 0.1875 28.742188 C 0.460938 44.09375 12.988281 56.453125 28.402344 56.453125 C 43.816406 56.453125 56.347656 44.09375 56.617188 28.742188 Z M 56.617188 28.742188 " fill-opacity="1" fill-rule="nonzero"/></g><g clip-path="url(#aa9556eec1)"><path fill="#f9d967" d="M 56.625 28.230469 C 56.625 28.402344 56.621094 28.570312 56.617188 28.742188 C 56.34375 44.09375 43.816406 56.453125 28.402344 56.453125 C 12.988281 56.453125 0.460938 44.09375 0.1875 28.742188 C 0.183594 28.570312 0.179688 28.402344 0.179688 28.230469 C 0.179688 12.644531 12.816406 0.0117188 28.402344 0.0117188 C 43.988281 0.0117188 56.625 12.644531 56.625 28.230469 Z M 56.625 28.230469 " fill-opacity="1" fill-rule="nonzero"/></g><path fill="#2e0266" d="M 16.101562 28.742188 C 16.097656 28.613281 16.09375 28.488281 16.09375 28.359375 C 16.09375 21.570312 21.617188 16.046875 28.40625 16.046875 C 35.195312 16.046875 40.71875 21.570312 40.71875 28.359375 C 40.71875 28.488281 40.710938 28.613281 40.707031 28.742188 C 40.507812 22.125 35.066406 16.808594 28.40625 16.808594 C 21.742188 16.808594 16.300781 22.125 16.101562 28.742188 Z M 28.402344 46.082031 C 18.742188 46.082031 10.890625 38.351562 10.683594 28.742188 C 10.683594 28.867188 10.679688 28.992188 10.679688 29.121094 C 10.679688 38.910156 18.613281 46.84375 28.402344 46.84375 C 38.191406 46.84375 46.125 38.910156 46.125 29.121094 C 46.125 28.992188 46.125 28.867188 46.121094 28.742188 C 45.917969 38.351562 38.0625 46.082031 28.402344 46.082031 Z M 28.402344 46.082031 " fill-opacity="1" fill-rule="nonzero"/><path fill="#5801c6" d="M 28.402344 10.640625 C 18.613281 10.640625 10.679688 18.574219 10.679688 28.363281 C 10.679688 28.488281 10.683594 28.613281 10.683594 28.742188 C 10.886719 38.355469 18.742188 46.085938 28.402344 46.085938 C 38.0625 46.085938 45.917969 38.355469 46.121094 28.742188 C 46.121094 28.617188 46.125 28.488281 46.125 28.363281 C 46.125 18.574219 38.191406 10.640625 28.402344 10.640625 Z M 40.703125 28.742188 C 40.503906 35.355469 35.0625 40.671875 28.402344 40.671875 C 21.742188 40.671875 16.300781 35.355469 16.101562 28.742188 C 16.097656 28.613281 16.09375 28.488281 16.09375 28.359375 C 16.09375 21.570312 21.617188 16.046875 28.40625 16.046875 C 35.195312 16.046875 40.71875 21.570312 40.71875 28.359375 C 40.714844 28.488281 40.710938 28.613281 40.703125 28.742188 Z M 40.703125 28.742188 " fill-opacity="1" fill-rule="nonzero"/><g clip-path="url(#308284fe54)"><path fill="#5801c6" d="M 56.617188 28.742188 C 56.621094 28.910156 56.625 29.082031 56.625 29.25 C 56.625 44.835938 43.988281 57.472656 28.402344 57.472656 C 12.816406 57.472656 0.179688 44.835938 0.179688 29.25 C 0.179688 29.082031 0.183594 28.910156 0.1875 28.742188 C 0.460938 44.09375 12.988281 56.453125 28.402344 56.453125 C 43.816406 56.453125 56.347656 44.09375 56.617188 28.742188 Z M 56.617188 28.742188 " fill-opacity="1" fill-rule="nonzero"/></g></svg>