<svg xmlns="http://www.w3.org/2000/svg" xmlns:xlink="http://www.w3.org/1999/xlink" width="79" zoomAndPan="magnify" viewBox="0 0 59.25 61.499996" height="82" preserveAspectRatio="xMidYMid meet" version="1.0"><defs><clipPath id="d4a88c2f54"><path d="M 0 29 L 58.507812 29 L 58.507812 59.386719 L 0 59.386719 Z M 0 29 " clip-rule="nonzero"/></clipPath><clipPath id="ca62d40caa"><path d="M 0 0.136719 L 58.507812 0.136719 L 58.507812 59 L 0 59 Z M 0 0.136719 " clip-rule="nonzero"/></clipPath><clipPath id="4f943225c8"><path d="M 0 30 L 58.507812 30 L 58.507812 60.414062 L 0 60.414062 Z M 0 30 " clip-rule="nonzero"/></clipPath><clipPath id="07ace66b13"><path d="M 0 1.164062 L 58.507812 1.164062 L 58.507812 60 L 0 60 Z M 0 1.164062 " clip-rule="nonzero"/></clipPath></defs><g clip-path="url(#d4a88c2f54)"><path fill="#5801c6" d="M 58.496094 29.929688 C 58.496094 30.113281 58.496094 30.277344 58.496094 30.460938 C 58.496094 46.625 45.394531 59.710938 29.25 59.710938 C 13.101562 59.710938 0 46.605469 0 30.460938 C 0 30.277344 0 30.113281 0 29.929688 C 0.273438 45.835938 13.269531 58.648438 29.25 58.648438 C 45.230469 58.648438 58.222656 45.835938 58.496094 29.929688 Z M 58.496094 29.929688 " fill-opacity="1" fill-rule="nonzero"/></g><g clip-path="url(#ca62d40caa)"><path fill="#e773ff" d="M 58.496094 29.398438 C 58.496094 29.582031 58.496094 29.746094 58.496094 29.929688 C 58.222656 45.835938 45.230469 58.648438 29.25 58.648438 C 13.269531 58.648438 0.292969 45.835938 0 29.929688 C 0 29.746094 0 29.582031 0 29.398438 C 0 13.253906 13.101562 0.148438 29.25 0.148438 C 45.414062 0.148438 58.496094 13.253906 58.496094 29.398438 Z M 58.496094 29.398438 " fill-opacity="1" fill-rule="nonzero"/></g><path fill="#2e0266" d="M 34.03125 30.207031 L 46.347656 41.714844 L 46.347656 42.519531 L 41.601562 47.265625 L 29.265625 34.96875 L 16.953125 47.285156 L 12.207031 42.539062 L 12.207031 41.734375 L 24.519531 30.222656 L 12.207031 17.890625 L 12.207031 17.082031 L 16.953125 13.125 L 29.265625 25.441406 L 41.582031 13.125 L 46.328125 17.082031 L 46.328125 17.890625 Z M 34.03125 30.207031 " fill-opacity="1" fill-rule="nonzero"/><path fill="#5801c6" d="M 34.03125 29.417969 L 46.347656 41.734375 L 41.601562 46.480469 L 29.285156 34.164062 L 16.96875 46.480469 L 12.222656 41.734375 L 24.539062 29.417969 L 12.207031 17.101562 L 16.953125 12.355469 L 29.265625 24.671875 L 41.582031 12.355469 L 46.328125 17.101562 Z M 34.03125 29.417969 " fill-opacity="1" fill-rule="nonzero"/><g clip-path="url(#4f943225c8)"><path fill="#5801c6" d="M 58.496094 30.957031 C 58.496094 31.140625 58.496094 31.304688 58.496094 31.488281 C 58.496094 47.652344 45.394531 60.738281 29.25 60.738281 C 13.101562 60.738281 0 47.636719 0 31.488281 C 0 31.304688 0 31.140625 0 30.957031 C 0.273438 46.867188 13.269531 59.675781 29.25 59.675781 C 45.230469 59.675781 58.222656 46.867188 58.496094 30.957031 Z M 58.496094 30.957031 " fill-opacity="1" fill-rule="nonzero"/></g><g clip-path="url(#07ace66b13)"><path fill="#e773ff" d="M 58.496094 30.425781 C 58.496094 30.609375 58.496094 30.773438 58.496094 30.957031 C 58.222656 46.867188 45.230469 59.675781 29.25 59.675781 C 13.269531 59.675781 0.292969 46.867188 0 30.957031 C 0 30.773438 0 30.609375 0 30.425781 C 0 14.28125 13.101562 1.175781 29.25 1.175781 C 45.414062 1.175781 58.496094 14.28125 58.496094 30.425781 Z M 58.496094 30.425781 " fill-opacity="1" fill-rule="nonzero"/></g><path fill="#2e0266" d="M 34.03125 31.234375 L 46.347656 42.742188 L 46.347656 43.546875 L 41.601562 48.292969 L 29.265625 35.996094 L 16.953125 48.3125 L 12.207031 43.566406 L 12.207031 42.761719 L 24.519531 31.25 L 12.207031 18.917969 L 12.207031 18.109375 L 16.953125 14.152344 L 29.265625 26.46875 L 41.582031 14.152344 L 46.328125 18.109375 L 46.328125 18.917969 Z M 34.03125 31.234375 " fill-opacity="1" fill-rule="nonzero"/><path fill="#5801c6" d="M 34.03125 30.445312 L 46.347656 42.761719 L 41.601562 47.507812 L 29.285156 35.191406 L 16.96875 47.507812 L 12.222656 42.761719 L 24.539062 30.445312 L 12.207031 18.128906 L 16.953125 13.382812 L 29.265625 25.699219 L 41.582031 13.382812 L 46.328125 18.128906 Z M 34.03125 30.445312 " fill-opacity="1" fill-rule="nonzero"/></svg>