<svg xmlns="http://www.w3.org/2000/svg" xmlns:xlink="http://www.w3.org/1999/xlink" width="252" zoomAndPan="magnify" viewBox="0 0 189 94.499997" height="126" preserveAspectRatio="xMidYMid meet" version="1.0"><defs><clipPath id="c501a90fb1"><path d="M 154 0 L 188.5 0 L 188.5 38 L 154 38 Z M 154 0 " clip-rule="nonzero"/></clipPath><clipPath id="cf39c03a15"><path d="M 0.496094 0 L 35 0 L 35 38 L 0.496094 38 Z M 0.496094 0 " clip-rule="nonzero"/></clipPath><clipPath id="96b1cf9b29"><path d="M 154 0 L 188.5 0 L 188.5 38 L 154 38 Z M 154 0 " clip-rule="nonzero"/></clipPath><clipPath id="95b148694e"><path d="M 0.496094 0 L 35 0 L 35 38 L 0.496094 38 Z M 0.496094 0 " clip-rule="nonzero"/></clipPath></defs><path fill="#e773ff" d="M 114.464844 62.898438 L 133.273438 62.898438 L 133.273438 59.132812 L 137.03125 59.132812 L 137.03125 55.375 L 106.941406 55.375 L 106.941406 59.132812 L 103.183594 59.132812 L 103.183594 89.230469 L 106.941406 89.230469 L 106.941406 92.988281 L 137.03125 92.988281 L 137.03125 89.230469 L 133.273438 89.230469 L 133.273438 85.464844 L 114.464844 85.464844 L 114.464844 77.945312 L 129.507812 77.945312 L 129.507812 70.421875 L 114.464844 70.421875 L 114.464844 62.898438 " fill-opacity="1" fill-rule="nonzero"/><g clip-path="url(#c501a90fb1)"><path fill="#e773ff" d="M 165.808594 7.851562 L 184.609375 7.851562 L 184.609375 4.085938 L 188.375 4.085938 L 188.375 0.328125 L 158.285156 0.328125 L 158.285156 4.085938 L 154.519531 4.085938 L 154.519531 34.175781 L 158.285156 34.175781 L 158.285156 37.9375 L 188.375 37.9375 L 188.375 34.175781 L 184.609375 34.175781 L 184.609375 30.417969 L 165.808594 30.417969 L 165.808594 22.894531 L 180.851562 22.894531 L 180.851562 15.371094 L 165.808594 15.371094 L 165.808594 7.851562 " fill-opacity="1" fill-rule="nonzero"/></g><path fill="#e773ff" d="M 65.007812 15.371094 L 65.007812 11.605469 L 72.527344 11.605469 L 72.527344 19.128906 L 65.007812 19.128906 Z M 80.050781 7.851562 L 80.050781 4.085938 L 76.285156 4.085938 L 76.285156 0.328125 L 61.242188 0.328125 L 61.242188 4.085938 L 57.484375 4.085938 L 57.484375 7.851562 L 53.71875 7.851562 L 53.71875 37.9375 L 65.007812 37.9375 L 65.007812 26.652344 L 72.527344 26.652344 L 72.527344 37.9375 L 83.808594 37.9375 L 83.808594 7.851562 L 80.050781 7.851562 " fill-opacity="1" fill-rule="nonzero"/><path fill="#e773ff" d="M 13.664062 81.707031 L 13.664062 62.898438 L 21.1875 62.898438 L 21.1875 85.464844 L 13.664062 85.464844 Z M 28.707031 59.132812 L 28.707031 55.375 L 6.140625 55.375 L 6.140625 59.132812 L 2.375 59.132812 L 2.375 89.230469 L 6.140625 89.230469 L 6.140625 92.988281 L 28.707031 92.988281 L 28.707031 89.230469 L 32.464844 89.230469 L 32.464844 59.132812 L 28.707031 59.132812 " fill-opacity="1" fill-rule="nonzero"/><path fill="#e773ff" d="M 171.457031 71.039062 L 167.699219 71.039062 L 167.699219 63.515625 L 175.222656 63.515625 L 175.222656 71.039062 Z M 182.746094 59.757812 L 182.746094 55.992188 L 156.414062 55.992188 L 156.414062 93.605469 L 167.699219 93.605469 L 167.699219 82.324219 L 175.222656 82.324219 L 175.222656 89.847656 L 178.980469 89.847656 L 178.980469 93.605469 L 186.503906 93.605469 L 186.503906 78.558594 L 182.746094 78.558594 L 182.746094 74.804688 L 186.503906 74.804688 L 186.503906 59.757812 L 182.746094 59.757812 " fill-opacity="1" fill-rule="nonzero"/><path fill="#e773ff" d="M 80.050781 55.375 L 72.527344 55.375 L 72.527344 74.1875 L 65.007812 74.1875 L 65.007812 55.375 L 53.71875 55.375 L 53.71875 81.707031 L 57.484375 81.707031 L 57.484375 85.464844 L 61.242188 85.464844 L 61.242188 89.230469 L 65.007812 89.230469 L 65.007812 92.988281 L 72.527344 92.988281 L 72.527344 89.230469 L 76.285156 89.230469 L 76.285156 85.464844 L 80.050781 85.464844 L 80.050781 81.707031 L 83.808594 81.707031 L 83.808594 55.375 L 80.050781 55.375 " fill-opacity="1" fill-rule="nonzero"/><g clip-path="url(#cf39c03a15)"><path fill="#e773ff" d="M 30.585938 4.085938 L 30.585938 0.328125 L 4.253906 0.328125 L 4.253906 4.085938 L 0.496094 4.085938 L 0.496094 34.175781 L 4.253906 34.175781 L 4.253906 37.9375 L 30.585938 37.9375 L 30.585938 34.175781 L 34.351562 34.175781 L 34.351562 19.128906 L 19.308594 19.128906 L 19.308594 26.652344 L 26.828125 26.652344 L 26.828125 30.417969 L 11.785156 30.417969 L 11.785156 7.851562 L 23.066406 7.851562 L 23.066406 11.605469 L 34.351562 11.605469 L 34.351562 4.085938 L 30.585938 4.085938 " fill-opacity="1" fill-rule="nonzero"/></g><path fill="#e773ff" d="M 105.0625 37.9375 L 112.585938 37.9375 L 112.585938 26.652344 L 116.34375 26.652344 L 116.34375 30.417969 L 118.230469 30.417969 L 118.230469 34.175781 L 121.984375 34.175781 L 121.984375 30.417969 L 123.863281 30.417969 L 123.863281 26.652344 L 127.628906 26.652344 L 127.628906 37.9375 L 138.910156 37.9375 L 138.910156 0.328125 L 127.628906 0.328125 L 127.628906 4.085938 L 123.863281 4.085938 L 123.863281 7.851562 L 116.34375 7.851562 L 116.34375 4.085938 L 112.585938 4.085938 L 112.585938 0.328125 L 101.296875 0.328125 L 101.296875 37.9375 L 105.0625 37.9375 " fill-opacity="1" fill-rule="nonzero"/><path fill="#e773ff" d="M 114.464844 62.898438 L 133.273438 62.898438 L 133.273438 59.132812 L 137.03125 59.132812 L 137.03125 55.375 L 106.941406 55.375 L 106.941406 59.132812 L 103.183594 59.132812 L 103.183594 89.230469 L 106.941406 89.230469 L 106.941406 92.988281 L 137.03125 92.988281 L 137.03125 89.230469 L 133.273438 89.230469 L 133.273438 85.464844 L 114.464844 85.464844 L 114.464844 77.945312 L 129.507812 77.945312 L 129.507812 70.421875 L 114.464844 70.421875 L 114.464844 62.898438 " fill-opacity="1" fill-rule="nonzero"/><g clip-path="url(#96b1cf9b29)"><path fill="#e773ff" d="M 165.808594 7.851562 L 184.609375 7.851562 L 184.609375 4.085938 L 188.375 4.085938 L 188.375 0.328125 L 158.285156 0.328125 L 158.285156 4.085938 L 154.519531 4.085938 L 154.519531 34.175781 L 158.285156 34.175781 L 158.285156 37.9375 L 188.375 37.9375 L 188.375 34.175781 L 184.609375 34.175781 L 184.609375 30.417969 L 165.808594 30.417969 L 165.808594 22.894531 L 180.851562 22.894531 L 180.851562 15.371094 L 165.808594 15.371094 L 165.808594 7.851562 " fill-opacity="1" fill-rule="nonzero"/></g><path fill="#e773ff" d="M 65.007812 15.371094 L 65.007812 11.605469 L 72.527344 11.605469 L 72.527344 19.128906 L 65.007812 19.128906 Z M 80.050781 7.851562 L 80.050781 4.085938 L 76.285156 4.085938 L 76.285156 0.328125 L 61.242188 0.328125 L 61.242188 4.085938 L 57.484375 4.085938 L 57.484375 7.851562 L 53.71875 7.851562 L 53.71875 37.9375 L 65.007812 37.9375 L 65.007812 26.652344 L 72.527344 26.652344 L 72.527344 37.9375 L 83.808594 37.9375 L 83.808594 7.851562 L 80.050781 7.851562 " fill-opacity="1" fill-rule="nonzero"/><path fill="#e773ff" d="M 13.664062 81.707031 L 13.664062 62.898438 L 21.1875 62.898438 L 21.1875 85.464844 L 13.664062 85.464844 Z M 28.707031 59.132812 L 28.707031 55.375 L 6.140625 55.375 L 6.140625 59.132812 L 2.375 59.132812 L 2.375 89.230469 L 6.140625 89.230469 L 6.140625 92.988281 L 28.707031 92.988281 L 28.707031 89.230469 L 32.464844 89.230469 L 32.464844 59.132812 L 28.707031 59.132812 " fill-opacity="1" fill-rule="nonzero"/><path fill="#e773ff" d="M 171.457031 71.039062 L 167.699219 71.039062 L 167.699219 63.515625 L 175.222656 63.515625 L 175.222656 71.039062 Z M 182.746094 59.757812 L 182.746094 55.992188 L 156.414062 55.992188 L 156.414062 93.605469 L 167.699219 93.605469 L 167.699219 82.324219 L 175.222656 82.324219 L 175.222656 89.847656 L 178.980469 89.847656 L 178.980469 93.605469 L 186.503906 93.605469 L 186.503906 78.558594 L 182.746094 78.558594 L 182.746094 74.804688 L 186.503906 74.804688 L 186.503906 59.757812 L 182.746094 59.757812 " fill-opacity="1" fill-rule="nonzero"/><path fill="#e773ff" d="M 80.050781 55.375 L 72.527344 55.375 L 72.527344 74.1875 L 65.007812 74.1875 L 65.007812 55.375 L 53.71875 55.375 L 53.71875 81.707031 L 57.484375 81.707031 L 57.484375 85.464844 L 61.242188 85.464844 L 61.242188 89.230469 L 65.007812 89.230469 L 65.007812 92.988281 L 72.527344 92.988281 L 72.527344 89.230469 L 76.285156 89.230469 L 76.285156 85.464844 L 80.050781 85.464844 L 80.050781 81.707031 L 83.808594 81.707031 L 83.808594 55.375 L 80.050781 55.375 " fill-opacity="1" fill-rule="nonzero"/><g clip-path="url(#95b148694e)"><path fill="#e773ff" d="M 30.585938 4.085938 L 30.585938 0.328125 L 4.253906 0.328125 L 4.253906 4.085938 L 0.496094 4.085938 L 0.496094 34.175781 L 4.253906 34.175781 L 4.253906 37.9375 L 30.585938 37.9375 L 30.585938 34.175781 L 34.351562 34.175781 L 34.351562 19.128906 L 19.308594 19.128906 L 19.308594 26.652344 L 26.828125 26.652344 L 26.828125 30.417969 L 11.785156 30.417969 L 11.785156 7.851562 L 23.066406 7.851562 L 23.066406 11.605469 L 34.351562 11.605469 L 34.351562 4.085938 L 30.585938 4.085938 " fill-opacity="1" fill-rule="nonzero"/></g><path fill="#e773ff" d="M 105.0625 37.9375 L 112.585938 37.9375 L 112.585938 26.652344 L 116.34375 26.652344 L 116.34375 30.417969 L 118.230469 30.417969 L 118.230469 34.175781 L 121.984375 34.175781 L 121.984375 30.417969 L 123.863281 30.417969 L 123.863281 26.652344 L 127.628906 26.652344 L 127.628906 37.9375 L 138.910156 37.9375 L 138.910156 0.328125 L 127.628906 0.328125 L 127.628906 4.085938 L 123.863281 4.085938 L 123.863281 7.851562 L 116.34375 7.851562 L 116.34375 4.085938 L 112.585938 4.085938 L 112.585938 0.328125 L 101.296875 0.328125 L 101.296875 37.9375 L 105.0625 37.9375 " fill-opacity="1" fill-rule="nonzero"/></svg>