<svg xmlns="http://www.w3.org/2000/svg" xmlns:xlink="http://www.w3.org/1999/xlink" width="292" zoomAndPan="magnify" viewBox="0 0 218.87999 62.999997" height="84" preserveAspectRatio="xMidYMid meet" version="1.0"><defs><clipPath id="91d0bedf7d"><path d="M 15 0.015625 L 204 0.015625 L 204 9 L 15 9 Z M 15 0.015625 " clip-rule="nonzero"/></clipPath><clipPath id="8f5c9a99ff"><path d="M 210 15 L 218.761719 15 L 218.761719 48 L 210 48 Z M 210 15 " clip-rule="nonzero"/></clipPath><clipPath id="3234e95eef"><path d="M 15 47 L 211 47 L 211 62.980469 L 15 62.980469 Z M 15 47 " clip-rule="nonzero"/></clipPath><clipPath id="ddf0947d43"><path d="M 15 0.015625 L 204 0.015625 L 204 9 L 15 9 Z M 15 0.015625 " clip-rule="nonzero"/></clipPath><clipPath id="38a41429aa"><path d="M 210 15 L 218.761719 15 L 218.761719 48 L 210 48 Z M 210 15 " clip-rule="nonzero"/></clipPath><clipPath id="dbee77d329"><path d="M 15 47 L 211 47 L 211 62.980469 L 15 62.980469 Z M 15 47 " clip-rule="nonzero"/></clipPath></defs><path fill="#2e0266" d="M 138.863281 29.042969 L 143.429688 29.042969 L 143.429688 24.476562 L 134.296875 24.476562 L 134.296875 29.042969 Z M 138.863281 29.042969 " fill-opacity="1" fill-rule="nonzero"/><path fill="#2e0266" d="M 210.921875 31.519531 L 210.921875 15.90625 L 203.113281 15.90625 L 203.113281 8.097656 L 195.308594 7.898438 L 15.636719 7.898438 L 15.636719 15.707031 L 7.832031 15.707031 L 7.832031 46.929688 L 15.636719 46.929688 L 15.636719 54.738281 L 203.027344 54.738281 L 203.027344 47.132812 L 210.832031 47.132812 L 210.832031 31.519531 Z M 43.347656 24.476562 L 43.347656 42.742188 L 38.78125 42.742188 L 38.78125 33.609375 L 34.214844 33.609375 L 34.214844 29.042969 L 29.648438 29.042969 L 29.648438 42.742188 L 25.082031 42.742188 L 25.082031 19.910156 L 29.648438 19.910156 L 29.648438 24.476562 L 34.214844 24.476562 L 34.214844 29.042969 L 38.78125 29.042969 L 38.78125 19.910156 L 43.347656 19.910156 Z M 61.601562 24.476562 L 52.46875 24.476562 L 52.46875 29.042969 L 57.035156 29.042969 L 57.035156 33.609375 L 52.46875 33.609375 L 52.46875 38.175781 L 61.601562 38.175781 L 61.601562 42.742188 L 47.902344 42.742188 L 47.902344 19.910156 L 61.601562 19.910156 Z M 88.996094 24.476562 L 88.996094 38.175781 L 84.429688 38.175781 L 84.429688 42.742188 L 79.863281 42.742188 L 79.863281 38.175781 L 75.296875 38.175781 L 75.296875 42.742188 L 70.734375 42.742188 L 70.734375 38.175781 L 66.167969 38.175781 L 66.167969 19.910156 L 70.734375 19.910156 L 70.734375 38.175781 L 75.296875 38.175781 L 75.296875 29.042969 L 79.863281 29.042969 L 79.863281 38.175781 L 84.429688 38.175781 L 84.429688 19.910156 L 88.996094 19.910156 Z M 125.164062 24.476562 L 106.898438 24.476562 L 106.898438 38.175781 L 120.597656 38.175781 L 120.597656 33.609375 L 111.464844 33.609375 L 111.464844 29.042969 L 125.164062 29.042969 L 125.164062 38.175781 L 120.597656 38.175781 L 120.597656 42.742188 L 106.898438 42.742188 L 106.898438 38.175781 L 102.332031 38.175781 L 102.332031 24.476562 L 106.898438 24.476562 L 106.898438 19.910156 L 125.164062 19.910156 Z M 147.996094 29.042969 L 147.996094 42.742188 L 143.429688 42.742188 L 143.429688 33.609375 L 134.296875 33.609375 L 134.296875 42.742188 L 129.730469 42.742188 L 129.730469 24.476562 L 134.296875 24.476562 L 134.296875 19.910156 L 143.429688 19.910156 L 143.429688 24.476562 L 147.996094 24.476562 Z M 175.378906 24.476562 L 175.378906 42.742188 L 170.8125 42.742188 L 170.8125 29.042969 L 166.246094 29.042969 L 166.246094 33.609375 L 161.679688 33.609375 L 161.679688 29.042969 L 157.113281 29.042969 L 157.113281 42.742188 L 152.550781 42.742188 L 152.550781 19.910156 L 157.113281 19.910156 L 157.113281 24.476562 L 161.679688 24.476562 L 161.679688 29.042969 L 166.246094 29.042969 L 166.246094 24.476562 L 170.8125 24.476562 L 170.8125 19.910156 L 175.378906 19.910156 Z M 193.644531 24.476562 L 184.511719 24.476562 L 184.511719 29.042969 L 189.078125 29.042969 L 189.078125 33.609375 L 184.511719 33.609375 L 184.511719 38.175781 L 193.644531 38.175781 L 193.644531 42.742188 L 179.945312 42.742188 L 179.945312 19.910156 L 193.644531 19.910156 Z M 193.644531 24.476562 " fill-opacity="1" fill-rule="nonzero"/><path fill="#2e0266" d="M 138.863281 29.042969 L 143.429688 29.042969 L 143.429688 24.476562 L 134.296875 24.476562 L 134.296875 29.042969 Z M 138.863281 29.042969 " fill-opacity="1" fill-rule="nonzero"/><g clip-path="url(#91d0bedf7d)"><path fill="#01c3dc" d="M 31.238281 7.886719 L 195.296875 7.886719 L 203.113281 8.085938 L 203.113281 0.0664062 L 15.613281 0.0664062 L 15.613281 7.886719 Z M 31.238281 7.886719 " fill-opacity="1" fill-rule="nonzero"/></g><path fill="#01c3dc" d="M 7.804688 7.886719 L 15.613281 7.886719 L 15.613281 15.691406 L 7.804688 15.691406 Z M 7.804688 7.886719 " fill-opacity="1" fill-rule="nonzero"/><path fill="#01c3dc" d="M 7.804688 31.320312 L 7.804688 15.691406 L 0 15.691406 L 0 46.945312 L 7.804688 46.945312 Z M 7.804688 31.320312 " fill-opacity="1" fill-rule="nonzero"/><path fill="#01c3dc" d="M 7.804688 46.945312 L 15.613281 46.945312 L 15.613281 54.75 L 7.804688 54.75 Z M 7.804688 46.945312 " fill-opacity="1" fill-rule="nonzero"/><path fill="#01c3dc" d="M 203.113281 8.085938 L 210.921875 8.085938 L 210.921875 15.894531 L 203.113281 15.894531 Z M 203.113281 8.085938 " fill-opacity="1" fill-rule="nonzero"/><g clip-path="url(#8f5c9a99ff)"><path fill="#01c3dc" d="M 210.921875 23.710938 L 210.921875 47.144531 L 218.726562 47.144531 L 218.726562 15.90625 L 210.921875 15.90625 Z M 210.921875 23.710938 " fill-opacity="1" fill-rule="nonzero"/></g><g clip-path="url(#3234e95eef)"><path fill="#01c3dc" d="M 203.113281 54.75 L 15.613281 54.75 L 15.613281 62.570312 L 203.113281 62.570312 L 203.113281 54.960938 L 210.921875 54.960938 L 210.921875 47.144531 L 203.113281 47.144531 Z M 203.113281 54.75 " fill-opacity="1" fill-rule="nonzero"/></g><path fill="#01c3dc" d="M 184.511719 19.910156 L 179.945312 19.910156 L 179.945312 42.726562 L 193.644531 42.726562 L 193.644531 38.160156 L 184.511719 38.160156 L 184.511719 33.59375 L 189.078125 33.59375 L 189.078125 29.042969 L 184.511719 29.042969 L 184.511719 24.476562 L 193.644531 24.476562 L 193.644531 19.910156 Z M 184.511719 19.910156 " fill-opacity="1" fill-rule="nonzero"/><path fill="#01c3dc" d="M 170.8125 24.476562 L 166.261719 24.476562 L 166.261719 29.042969 L 170.8125 29.042969 L 170.8125 42.726562 L 175.378906 42.726562 L 175.378906 19.910156 L 170.8125 19.910156 Z M 170.8125 24.476562 " fill-opacity="1" fill-rule="nonzero"/><path fill="#01c3dc" d="M 161.695312 29.042969 L 166.261719 29.042969 L 166.261719 33.609375 L 161.695312 33.609375 Z M 161.695312 29.042969 " fill-opacity="1" fill-rule="nonzero"/><path fill="#01c3dc" d="M 84.429688 24.476562 L 84.429688 38.160156 L 88.996094 38.160156 L 88.996094 19.910156 L 84.429688 19.910156 Z M 84.429688 24.476562 " fill-opacity="1" fill-rule="nonzero"/><path fill="#01c3dc" d="M 157.128906 24.476562 L 157.128906 19.910156 L 152.5625 19.910156 L 152.5625 42.726562 L 157.128906 42.726562 L 157.128906 29.042969 L 161.695312 29.042969 L 161.695312 24.476562 Z M 157.128906 24.476562 " fill-opacity="1" fill-rule="nonzero"/><path fill="#01c3dc" d="M 79.863281 38.160156 L 84.429688 38.160156 L 84.429688 42.726562 L 79.863281 42.726562 Z M 79.863281 38.160156 " fill-opacity="1" fill-rule="nonzero"/><path fill="#01c3dc" d="M 79.863281 29.042969 L 75.296875 29.042969 L 75.296875 38.160156 L 79.863281 38.160156 Z M 79.863281 29.042969 " fill-opacity="1" fill-rule="nonzero"/><path fill="#01c3dc" d="M 70.734375 38.160156 L 75.296875 38.160156 L 75.296875 42.726562 L 70.734375 42.726562 Z M 70.734375 38.160156 " fill-opacity="1" fill-rule="nonzero"/><path fill="#01c3dc" d="M 143.429688 29.042969 L 134.296875 29.042969 L 134.296875 24.476562 L 129.730469 24.476562 L 129.730469 42.726562 L 134.296875 42.726562 L 134.296875 33.59375 L 143.429688 33.59375 L 143.429688 42.726562 L 147.996094 42.726562 L 147.996094 24.476562 L 143.429688 24.476562 Z M 143.429688 29.042969 " fill-opacity="1" fill-rule="nonzero"/><path fill="#01c3dc" d="M 70.734375 29.042969 L 70.734375 19.910156 L 66.167969 19.910156 L 66.167969 38.160156 L 70.734375 38.160156 Z M 70.734375 29.042969 " fill-opacity="1" fill-rule="nonzero"/><path fill="#01c3dc" d="M 143.429688 24.476562 L 143.429688 19.910156 L 134.296875 19.910156 L 134.296875 24.476562 Z M 143.429688 24.476562 " fill-opacity="1" fill-rule="nonzero"/><path fill="#01c3dc" d="M 52.46875 19.910156 L 47.914062 19.910156 L 47.914062 42.726562 L 61.601562 42.726562 L 61.601562 38.160156 L 52.46875 38.160156 L 52.46875 33.59375 L 57.035156 33.59375 L 57.035156 29.042969 L 52.46875 29.042969 L 52.46875 24.476562 L 61.601562 24.476562 L 61.601562 19.910156 Z M 52.46875 19.910156 " fill-opacity="1" fill-rule="nonzero"/><path fill="#01c3dc" d="M 125.164062 33.59375 L 125.164062 29.042969 L 111.476562 29.042969 L 111.476562 33.59375 L 120.609375 33.59375 L 120.609375 38.160156 L 125.164062 38.160156 Z M 125.164062 33.59375 " fill-opacity="1" fill-rule="nonzero"/><path fill="#01c3dc" d="M 116.042969 19.910156 L 106.910156 19.910156 L 106.910156 24.476562 L 125.164062 24.476562 L 125.164062 19.910156 Z M 116.042969 19.910156 " fill-opacity="1" fill-rule="nonzero"/><path fill="#01c3dc" d="M 38.78125 24.476562 L 38.78125 29.042969 L 34.214844 29.042969 L 34.214844 33.59375 L 38.78125 33.59375 L 38.78125 42.726562 L 43.347656 42.726562 L 43.347656 19.910156 L 38.78125 19.910156 Z M 38.78125 24.476562 " fill-opacity="1" fill-rule="nonzero"/><path fill="#01c3dc" d="M 111.476562 42.726562 L 120.609375 42.726562 L 120.609375 38.160156 L 106.910156 38.160156 L 106.910156 42.726562 Z M 111.476562 42.726562 " fill-opacity="1" fill-rule="nonzero"/><path fill="#01c3dc" d="M 29.648438 24.476562 L 29.648438 19.910156 L 25.082031 19.910156 L 25.082031 42.726562 L 29.648438 42.726562 L 29.648438 29.042969 L 34.214844 29.042969 L 34.214844 24.476562 Z M 29.648438 24.476562 " fill-opacity="1" fill-rule="nonzero"/><path fill="#01c3dc" d="M 102.34375 29.042969 L 102.34375 38.160156 L 106.910156 38.160156 L 106.910156 24.476562 L 102.34375 24.476562 Z M 102.34375 29.042969 " fill-opacity="1" fill-rule="nonzero"/><path fill="#2e0266" d="M 138.863281 29.042969 L 143.429688 29.042969 L 143.429688 24.476562 L 134.296875 24.476562 L 134.296875 29.042969 Z M 138.863281 29.042969 " fill-opacity="1" fill-rule="nonzero"/><path fill="#2e0266" d="M 210.921875 31.519531 L 210.921875 15.90625 L 203.113281 15.90625 L 203.113281 8.097656 L 195.308594 7.898438 L 15.636719 7.898438 L 15.636719 15.707031 L 7.832031 15.707031 L 7.832031 46.929688 L 15.636719 46.929688 L 15.636719 54.738281 L 203.027344 54.738281 L 203.027344 47.132812 L 210.832031 47.132812 L 210.832031 31.519531 Z M 43.347656 24.476562 L 43.347656 42.742188 L 38.78125 42.742188 L 38.78125 33.609375 L 34.214844 33.609375 L 34.214844 29.042969 L 29.648438 29.042969 L 29.648438 42.742188 L 25.082031 42.742188 L 25.082031 19.910156 L 29.648438 19.910156 L 29.648438 24.476562 L 34.214844 24.476562 L 34.214844 29.042969 L 38.78125 29.042969 L 38.78125 19.910156 L 43.347656 19.910156 Z M 61.601562 24.476562 L 52.46875 24.476562 L 52.46875 29.042969 L 57.035156 29.042969 L 57.035156 33.609375 L 52.46875 33.609375 L 52.46875 38.175781 L 61.601562 38.175781 L 61.601562 42.742188 L 47.902344 42.742188 L 47.902344 19.910156 L 61.601562 19.910156 Z M 88.996094 24.476562 L 88.996094 38.175781 L 84.429688 38.175781 L 84.429688 42.742188 L 79.863281 42.742188 L 79.863281 38.175781 L 75.296875 38.175781 L 75.296875 42.742188 L 70.734375 42.742188 L 70.734375 38.175781 L 66.167969 38.175781 L 66.167969 19.910156 L 70.734375 19.910156 L 70.734375 38.175781 L 75.296875 38.175781 L 75.296875 29.042969 L 79.863281 29.042969 L 79.863281 38.175781 L 84.429688 38.175781 L 84.429688 19.910156 L 88.996094 19.910156 Z M 125.164062 24.476562 L 106.898438 24.476562 L 106.898438 38.175781 L 120.597656 38.175781 L 120.597656 33.609375 L 111.464844 33.609375 L 111.464844 29.042969 L 125.164062 29.042969 L 125.164062 38.175781 L 120.597656 38.175781 L 120.597656 42.742188 L 106.898438 42.742188 L 106.898438 38.175781 L 102.332031 38.175781 L 102.332031 24.476562 L 106.898438 24.476562 L 106.898438 19.910156 L 125.164062 19.910156 Z M 147.996094 29.042969 L 147.996094 42.742188 L 143.429688 42.742188 L 143.429688 33.609375 L 134.296875 33.609375 L 134.296875 42.742188 L 129.730469 42.742188 L 129.730469 24.476562 L 134.296875 24.476562 L 134.296875 19.910156 L 143.429688 19.910156 L 143.429688 24.476562 L 147.996094 24.476562 Z M 175.378906 24.476562 L 175.378906 42.742188 L 170.8125 42.742188 L 170.8125 29.042969 L 166.246094 29.042969 L 166.246094 33.609375 L 161.679688 33.609375 L 161.679688 29.042969 L 157.113281 29.042969 L 157.113281 42.742188 L 152.550781 42.742188 L 152.550781 19.910156 L 157.113281 19.910156 L 157.113281 24.476562 L 161.679688 24.476562 L 161.679688 29.042969 L 166.246094 29.042969 L 166.246094 24.476562 L 170.8125 24.476562 L 170.8125 19.910156 L 175.378906 19.910156 Z M 193.644531 24.476562 L 184.511719 24.476562 L 184.511719 29.042969 L 189.078125 29.042969 L 189.078125 33.609375 L 184.511719 33.609375 L 184.511719 38.175781 L 193.644531 38.175781 L 193.644531 42.742188 L 179.945312 42.742188 L 179.945312 19.910156 L 193.644531 19.910156 Z M 193.644531 24.476562 " fill-opacity="1" fill-rule="nonzero"/><path fill="#2e0266" d="M 138.863281 29.042969 L 143.429688 29.042969 L 143.429688 24.476562 L 134.296875 24.476562 L 134.296875 29.042969 Z M 138.863281 29.042969 " fill-opacity="1" fill-rule="nonzero"/><g clip-path="url(#ddf0947d43)"><path fill="#01c3dc" d="M 31.238281 7.886719 L 195.296875 7.886719 L 203.113281 8.085938 L 203.113281 0.0664062 L 15.613281 0.0664062 L 15.613281 7.886719 Z M 31.238281 7.886719 " fill-opacity="1" fill-rule="nonzero"/></g><path fill="#01c3dc" d="M 7.804688 7.886719 L 15.613281 7.886719 L 15.613281 15.691406 L 7.804688 15.691406 Z M 7.804688 7.886719 " fill-opacity="1" fill-rule="nonzero"/><path fill="#01c3dc" d="M 7.804688 31.320312 L 7.804688 15.691406 L 0 15.691406 L 0 46.945312 L 7.804688 46.945312 Z M 7.804688 31.320312 " fill-opacity="1" fill-rule="nonzero"/><path fill="#01c3dc" d="M 7.804688 46.945312 L 15.613281 46.945312 L 15.613281 54.75 L 7.804688 54.75 Z M 7.804688 46.945312 " fill-opacity="1" fill-rule="nonzero"/><path fill="#01c3dc" d="M 203.113281 8.085938 L 210.921875 8.085938 L 210.921875 15.894531 L 203.113281 15.894531 Z M 203.113281 8.085938 " fill-opacity="1" fill-rule="nonzero"/><g clip-path="url(#38a41429aa)"><path fill="#01c3dc" d="M 210.921875 23.710938 L 210.921875 47.144531 L 218.726562 47.144531 L 218.726562 15.90625 L 210.921875 15.90625 Z M 210.921875 23.710938 " fill-opacity="1" fill-rule="nonzero"/></g><g clip-path="url(#dbee77d329)"><path fill="#01c3dc" d="M 203.113281 54.75 L 15.613281 54.75 L 15.613281 62.570312 L 203.113281 62.570312 L 203.113281 54.960938 L 210.921875 54.960938 L 210.921875 47.144531 L 203.113281 47.144531 Z M 203.113281 54.75 " fill-opacity="1" fill-rule="nonzero"/></g><path fill="#01c3dc" d="M 184.511719 19.910156 L 179.945312 19.910156 L 179.945312 42.726562 L 193.644531 42.726562 L 193.644531 38.160156 L 184.511719 38.160156 L 184.511719 33.59375 L 189.078125 33.59375 L 189.078125 29.042969 L 184.511719 29.042969 L 184.511719 24.476562 L 193.644531 24.476562 L 193.644531 19.910156 Z M 184.511719 19.910156 " fill-opacity="1" fill-rule="nonzero"/><path fill="#01c3dc" d="M 170.8125 24.476562 L 166.261719 24.476562 L 166.261719 29.042969 L 170.8125 29.042969 L 170.8125 42.726562 L 175.378906 42.726562 L 175.378906 19.910156 L 170.8125 19.910156 Z M 170.8125 24.476562 " fill-opacity="1" fill-rule="nonzero"/><path fill="#01c3dc" d="M 161.695312 29.042969 L 166.261719 29.042969 L 166.261719 33.609375 L 161.695312 33.609375 Z M 161.695312 29.042969 " fill-opacity="1" fill-rule="nonzero"/><path fill="#01c3dc" d="M 84.429688 24.476562 L 84.429688 38.160156 L 88.996094 38.160156 L 88.996094 19.910156 L 84.429688 19.910156 Z M 84.429688 24.476562 " fill-opacity="1" fill-rule="nonzero"/><path fill="#01c3dc" d="M 157.128906 24.476562 L 157.128906 19.910156 L 152.5625 19.910156 L 152.5625 42.726562 L 157.128906 42.726562 L 157.128906 29.042969 L 161.695312 29.042969 L 161.695312 24.476562 Z M 157.128906 24.476562 " fill-opacity="1" fill-rule="nonzero"/><path fill="#01c3dc" d="M 79.863281 38.160156 L 84.429688 38.160156 L 84.429688 42.726562 L 79.863281 42.726562 Z M 79.863281 38.160156 " fill-opacity="1" fill-rule="nonzero"/><path fill="#01c3dc" d="M 79.863281 29.042969 L 75.296875 29.042969 L 75.296875 38.160156 L 79.863281 38.160156 Z M 79.863281 29.042969 " fill-opacity="1" fill-rule="nonzero"/><path fill="#01c3dc" d="M 70.734375 38.160156 L 75.296875 38.160156 L 75.296875 42.726562 L 70.734375 42.726562 Z M 70.734375 38.160156 " fill-opacity="1" fill-rule="nonzero"/><path fill="#01c3dc" d="M 143.429688 29.042969 L 134.296875 29.042969 L 134.296875 24.476562 L 129.730469 24.476562 L 129.730469 42.726562 L 134.296875 42.726562 L 134.296875 33.59375 L 143.429688 33.59375 L 143.429688 42.726562 L 147.996094 42.726562 L 147.996094 24.476562 L 143.429688 24.476562 Z M 143.429688 29.042969 " fill-opacity="1" fill-rule="nonzero"/><path fill="#01c3dc" d="M 70.734375 29.042969 L 70.734375 19.910156 L 66.167969 19.910156 L 66.167969 38.160156 L 70.734375 38.160156 Z M 70.734375 29.042969 " fill-opacity="1" fill-rule="nonzero"/><path fill="#01c3dc" d="M 143.429688 24.476562 L 143.429688 19.910156 L 134.296875 19.910156 L 134.296875 24.476562 Z M 143.429688 24.476562 " fill-opacity="1" fill-rule="nonzero"/><path fill="#01c3dc" d="M 52.46875 19.910156 L 47.914062 19.910156 L 47.914062 42.726562 L 61.601562 42.726562 L 61.601562 38.160156 L 52.46875 38.160156 L 52.46875 33.59375 L 57.035156 33.59375 L 57.035156 29.042969 L 52.46875 29.042969 L 52.46875 24.476562 L 61.601562 24.476562 L 61.601562 19.910156 Z M 52.46875 19.910156 " fill-opacity="1" fill-rule="nonzero"/><path fill="#01c3dc" d="M 125.164062 33.59375 L 125.164062 29.042969 L 111.476562 29.042969 L 111.476562 33.59375 L 120.609375 33.59375 L 120.609375 38.160156 L 125.164062 38.160156 Z M 125.164062 33.59375 " fill-opacity="1" fill-rule="nonzero"/><path fill="#01c3dc" d="M 116.042969 19.910156 L 106.910156 19.910156 L 106.910156 24.476562 L 125.164062 24.476562 L 125.164062 19.910156 Z M 116.042969 19.910156 " fill-opacity="1" fill-rule="nonzero"/><path fill="#01c3dc" d="M 38.78125 24.476562 L 38.78125 29.042969 L 34.214844 29.042969 L 34.214844 33.59375 L 38.78125 33.59375 L 38.78125 42.726562 L 43.347656 42.726562 L 43.347656 19.910156 L 38.78125 19.910156 Z M 38.78125 24.476562 " fill-opacity="1" fill-rule="nonzero"/><path fill="#01c3dc" d="M 111.476562 42.726562 L 120.609375 42.726562 L 120.609375 38.160156 L 106.910156 38.160156 L 106.910156 42.726562 Z M 111.476562 42.726562 " fill-opacity="1" fill-rule="nonzero"/><path fill="#01c3dc" d="M 29.648438 24.476562 L 29.648438 19.910156 L 25.082031 19.910156 L 25.082031 42.726562 L 29.648438 42.726562 L 29.648438 29.042969 L 34.214844 29.042969 L 34.214844 24.476562 Z M 29.648438 24.476562 " fill-opacity="1" fill-rule="nonzero"/><path fill="#01c3dc" d="M 102.34375 29.042969 L 102.34375 38.160156 L 106.910156 38.160156 L 106.910156 24.476562 L 102.34375 24.476562 Z M 102.34375 29.042969 " fill-opacity="1" fill-rule="nonzero"/></svg>