<svg xmlns="http://www.w3.org/2000/svg" xmlns:xlink="http://www.w3.org/1999/xlink" width="212" zoomAndPan="magnify" viewBox="0 0 159 153.000002" height="204" preserveAspectRatio="xMidYMid meet" version="1.0"><defs><clipPath id="f64fc37209"><path d="M 35 24 L 115 24 L 115 99 L 35 99 Z M 35 24 " clip-rule="nonzero"/></clipPath><clipPath id="8e62e9899e"><path d="M 25.695312 20.527344 L 133.289062 -0.0078125 L 158.292969 131.003906 L 50.699219 151.539062 Z M 25.695312 20.527344 " clip-rule="nonzero"/></clipPath><clipPath id="5363944962"><path d="M 133.242188 0 L 25.648438 20.535156 L 50.65625 151.546875 L 158.246094 131.011719 Z M 133.242188 0 " clip-rule="nonzero"/></clipPath><clipPath id="5c9ff4420e"><path d="M 97 110 L 104 110 L 104 118 L 97 118 Z M 97 110 " clip-rule="nonzero"/></clipPath><clipPath id="fa4b2c991d"><path d="M 25.695312 20.527344 L 133.289062 -0.0078125 L 158.292969 131.003906 L 50.699219 151.539062 Z M 25.695312 20.527344 " clip-rule="nonzero"/></clipPath><clipPath id="fffbed9d91"><path d="M 133.242188 0 L 25.648438 20.535156 L 50.65625 151.546875 L 158.246094 131.011719 Z M 133.242188 0 " clip-rule="nonzero"/></clipPath><clipPath id="bcc5887682"><path d="M 109 97 L 116 97 L 116 105 L 109 105 Z M 109 97 " clip-rule="nonzero"/></clipPath><clipPath id="255e24b36d"><path d="M 25.695312 20.527344 L 133.289062 -0.0078125 L 158.292969 131.003906 L 50.699219 151.539062 Z M 25.695312 20.527344 " clip-rule="nonzero"/></clipPath><clipPath id="ac0a122799"><path d="M 133.242188 0 L 25.648438 20.535156 L 50.65625 151.546875 L 158.246094 131.011719 Z M 133.242188 0 " clip-rule="nonzero"/></clipPath><clipPath id="662e20ba64"><path d="M 120 84 L 128 84 L 128 91 L 120 91 Z M 120 84 " clip-rule="nonzero"/></clipPath><clipPath id="b31350780c"><path d="M 25.695312 20.527344 L 133.289062 -0.0078125 L 158.292969 131.003906 L 50.699219 151.539062 Z M 25.695312 20.527344 " clip-rule="nonzero"/></clipPath><clipPath id="fdb79f7421"><path d="M 133.242188 0 L 25.648438 20.535156 L 50.65625 151.546875 L 158.246094 131.011719 Z M 133.242188 0 " clip-rule="nonzero"/></clipPath><clipPath id="460715649f"><path d="M 121 96 L 129 96 L 129 116 L 121 116 Z M 121 96 " clip-rule="nonzero"/></clipPath><clipPath id="3360b8b61f"><path d="M 25.695312 20.527344 L 133.289062 -0.0078125 L 158.292969 131.003906 L 50.699219 151.539062 Z M 25.695312 20.527344 " clip-rule="nonzero"/></clipPath><clipPath id="90a10e9f29"><path d="M 133.242188 0 L 25.648438 20.535156 L 50.65625 151.546875 L 158.246094 131.011719 Z M 133.242188 0 " clip-rule="nonzero"/></clipPath><clipPath id="cd25609565"><path d="M 134 108 L 143 108 L 143 128 L 134 128 Z M 134 108 " clip-rule="nonzero"/></clipPath><clipPath id="769c97e099"><path d="M 25.695312 20.527344 L 133.289062 -0.0078125 L 158.292969 131.003906 L 50.699219 151.539062 Z M 25.695312 20.527344 " clip-rule="nonzero"/></clipPath><clipPath id="b136cd74c7"><path d="M 133.242188 0 L 25.648438 20.535156 L 50.65625 151.546875 L 158.246094 131.011719 Z M 133.242188 0 " clip-rule="nonzero"/></clipPath><clipPath id="e1411ab6d9"><path d="M 132 70 L 140 70 L 140 78 L 132 78 Z M 132 70 " clip-rule="nonzero"/></clipPath><clipPath id="3cc0efc171"><path d="M 25.695312 20.527344 L 133.289062 -0.0078125 L 158.292969 131.003906 L 50.699219 151.539062 Z M 25.695312 20.527344 " clip-rule="nonzero"/></clipPath><clipPath id="a5f0c85ccd"><path d="M 133.242188 0 L 25.648438 20.535156 L 50.65625 151.546875 L 158.246094 131.011719 Z M 133.242188 0 " clip-rule="nonzero"/></clipPath><clipPath id="f5f8fe11e9"><path d="M 89 92 L 97 92 L 97 99 L 89 99 Z M 89 92 " clip-rule="nonzero"/></clipPath><clipPath id="6a22ce862c"><path d="M 25.695312 20.527344 L 133.289062 -0.0078125 L 158.292969 131.003906 L 50.699219 151.539062 Z M 25.695312 20.527344 " clip-rule="nonzero"/></clipPath><clipPath id="507fcf97f6"><path d="M 133.242188 0 L 25.648438 20.535156 L 50.65625 151.546875 L 158.246094 131.011719 Z M 133.242188 0 " clip-rule="nonzero"/></clipPath><clipPath id="d30f4ad03d"><path d="M 83 86 L 90 86 L 90 93 L 83 93 Z M 83 86 " clip-rule="nonzero"/></clipPath><clipPath id="72854ff272"><path d="M 25.695312 20.527344 L 133.289062 -0.0078125 L 158.292969 131.003906 L 50.699219 151.539062 Z M 25.695312 20.527344 " clip-rule="nonzero"/></clipPath><clipPath id="04849ec4d4"><path d="M 133.242188 0 L 25.648438 20.535156 L 50.65625 151.546875 L 158.246094 131.011719 Z M 133.242188 0 " clip-rule="nonzero"/></clipPath><clipPath id="45f06689a9"><path d="M 76 80 L 84 80 L 84 87 L 76 87 Z M 76 80 " clip-rule="nonzero"/></clipPath><clipPath id="2579b2243e"><path d="M 25.695312 20.527344 L 133.289062 -0.0078125 L 158.292969 131.003906 L 50.699219 151.539062 Z M 25.695312 20.527344 " clip-rule="nonzero"/></clipPath><clipPath id="5fc6f91296"><path d="M 133.242188 0 L 25.648438 20.535156 L 50.65625 151.546875 L 158.246094 131.011719 Z M 133.242188 0 " clip-rule="nonzero"/></clipPath><clipPath id="a994a628eb"><path d="M 69 74 L 77 74 L 77 81 L 69 81 Z M 69 74 " clip-rule="nonzero"/></clipPath><clipPath id="2d18bb432f"><path d="M 25.695312 20.527344 L 133.289062 -0.0078125 L 158.292969 131.003906 L 50.699219 151.539062 Z M 25.695312 20.527344 " clip-rule="nonzero"/></clipPath><clipPath id="958f6c015a"><path d="M 133.242188 0 L 25.648438 20.535156 L 50.65625 151.546875 L 158.246094 131.011719 Z M 133.242188 0 " clip-rule="nonzero"/></clipPath><clipPath id="3fb40f22c9"><path d="M 63 68 L 70 68 L 70 75 L 63 75 Z M 63 68 " clip-rule="nonzero"/></clipPath><clipPath id="248ee8d963"><path d="M 25.695312 20.527344 L 133.289062 -0.0078125 L 158.292969 131.003906 L 50.699219 151.539062 Z M 25.695312 20.527344 " clip-rule="nonzero"/></clipPath><clipPath id="99d0b5bbf5"><path d="M 133.242188 0 L 25.648438 20.535156 L 50.65625 151.546875 L 158.246094 131.011719 Z M 133.242188 0 " clip-rule="nonzero"/></clipPath><clipPath id="6e26498865"><path d="M 56 62 L 64 62 L 64 69 L 56 69 Z M 56 62 " clip-rule="nonzero"/></clipPath><clipPath id="599faab080"><path d="M 25.695312 20.527344 L 133.289062 -0.0078125 L 158.292969 131.003906 L 50.699219 151.539062 Z M 25.695312 20.527344 " clip-rule="nonzero"/></clipPath><clipPath id="f47155d12d"><path d="M 133.242188 0 L 25.648438 20.535156 L 50.65625 151.546875 L 158.246094 131.011719 Z M 133.242188 0 " clip-rule="nonzero"/></clipPath><clipPath id="32aa89ef75"><path d="M 50 56 L 57 56 L 57 63 L 50 63 Z M 50 56 " clip-rule="nonzero"/></clipPath><clipPath id="acd6a4a694"><path d="M 25.695312 20.527344 L 133.289062 -0.0078125 L 158.292969 131.003906 L 50.699219 151.539062 Z M 25.695312 20.527344 " clip-rule="nonzero"/></clipPath><clipPath id="ee21d7c565"><path d="M 133.242188 0 L 25.648438 20.535156 L 50.65625 151.546875 L 158.246094 131.011719 Z M 133.242188 0 " clip-rule="nonzero"/></clipPath><clipPath id="6b8d78cada"><path d="M 43 50 L 51 50 L 51 57 L 43 57 Z M 43 50 " clip-rule="nonzero"/></clipPath><clipPath id="bdfe41dc38"><path d="M 25.695312 20.527344 L 133.289062 -0.0078125 L 158.292969 131.003906 L 50.699219 151.539062 Z M 25.695312 20.527344 " clip-rule="nonzero"/></clipPath><clipPath id="00ea8d0ce2"><path d="M 133.242188 0 L 25.648438 20.535156 L 50.65625 151.546875 L 158.246094 131.011719 Z M 133.242188 0 " clip-rule="nonzero"/></clipPath><clipPath id="3eb854a1dc"><path d="M 36 44 L 44 44 L 44 51 L 36 51 Z M 36 44 " clip-rule="nonzero"/></clipPath><clipPath id="8916249ba8"><path d="M 25.695312 20.527344 L 133.289062 -0.0078125 L 158.292969 131.003906 L 50.699219 151.539062 Z M 25.695312 20.527344 " clip-rule="nonzero"/></clipPath><clipPath id="97a35fe371"><path d="M 133.242188 0 L 25.648438 20.535156 L 50.65625 151.546875 L 158.246094 131.011719 Z M 133.242188 0 " clip-rule="nonzero"/></clipPath><clipPath id="cee0b32b67"><path d="M 107 72 L 115 72 L 115 79 L 107 79 Z M 107 72 " clip-rule="nonzero"/></clipPath><clipPath id="a5c34f85d6"><path d="M 25.695312 20.527344 L 133.289062 -0.0078125 L 158.292969 131.003906 L 50.699219 151.539062 Z M 25.695312 20.527344 " clip-rule="nonzero"/></clipPath><clipPath id="0f740084e8"><path d="M 133.242188 0 L 25.648438 20.535156 L 50.65625 151.546875 L 158.246094 131.011719 Z M 133.242188 0 " clip-rule="nonzero"/></clipPath><clipPath id="985989e7b8"><path d="M 101 66 L 108 66 L 108 73 L 101 73 Z M 101 66 " clip-rule="nonzero"/></clipPath><clipPath id="afceb020f9"><path d="M 25.695312 20.527344 L 133.289062 -0.0078125 L 158.292969 131.003906 L 50.699219 151.539062 Z M 25.695312 20.527344 " clip-rule="nonzero"/></clipPath><clipPath id="b4e9158d6c"><path d="M 133.242188 0 L 25.648438 20.535156 L 50.65625 151.546875 L 158.246094 131.011719 Z M 133.242188 0 " clip-rule="nonzero"/></clipPath><clipPath id="90ee0ed68e"><path d="M 94 60 L 102 60 L 102 67 L 94 67 Z M 94 60 " clip-rule="nonzero"/></clipPath><clipPath id="0c0ff21a32"><path d="M 25.695312 20.527344 L 133.289062 -0.0078125 L 158.292969 131.003906 L 50.699219 151.539062 Z M 25.695312 20.527344 " clip-rule="nonzero"/></clipPath><clipPath id="dd6ba11b22"><path d="M 133.242188 0 L 25.648438 20.535156 L 50.65625 151.546875 L 158.246094 131.011719 Z M 133.242188 0 " clip-rule="nonzero"/></clipPath><clipPath id="0eefece03b"><path d="M 87 54 L 95 54 L 95 61 L 87 61 Z M 87 54 " clip-rule="nonzero"/></clipPath><clipPath id="92e4ce0b94"><path d="M 25.695312 20.527344 L 133.289062 -0.0078125 L 158.292969 131.003906 L 50.699219 151.539062 Z M 25.695312 20.527344 " clip-rule="nonzero"/></clipPath><clipPath id="9d752d3371"><path d="M 133.242188 0 L 25.648438 20.535156 L 50.65625 151.546875 L 158.246094 131.011719 Z M 133.242188 0 " clip-rule="nonzero"/></clipPath><clipPath id="9dded43c6b"><path d="M 81 48 L 88 48 L 88 55 L 81 55 Z M 81 48 " clip-rule="nonzero"/></clipPath><clipPath id="48f49477d6"><path d="M 25.695312 20.527344 L 133.289062 -0.0078125 L 158.292969 131.003906 L 50.699219 151.539062 Z M 25.695312 20.527344 " clip-rule="nonzero"/></clipPath><clipPath id="46085f85c4"><path d="M 133.242188 0 L 25.648438 20.535156 L 50.65625 151.546875 L 158.246094 131.011719 Z M 133.242188 0 " clip-rule="nonzero"/></clipPath><clipPath id="8f477a9db2"><path d="M 74 42 L 82 42 L 82 50 L 74 50 Z M 74 42 " clip-rule="nonzero"/></clipPath><clipPath id="30351ff5d6"><path d="M 25.695312 20.527344 L 133.289062 -0.0078125 L 158.292969 131.003906 L 50.699219 151.539062 Z M 25.695312 20.527344 " clip-rule="nonzero"/></clipPath><clipPath id="3992c7e08e"><path d="M 133.242188 0 L 25.648438 20.535156 L 50.65625 151.546875 L 158.246094 131.011719 Z M 133.242188 0 " clip-rule="nonzero"/></clipPath><clipPath id="0e4fe3e52f"><path d="M 84 117 L 92 117 L 92 131 L 84 131 Z M 84 117 " clip-rule="nonzero"/></clipPath><clipPath id="cd91cdb20d"><path d="M 25.695312 20.527344 L 133.289062 -0.0078125 L 158.292969 131.003906 L 50.699219 151.539062 Z M 25.695312 20.527344 " clip-rule="nonzero"/></clipPath><clipPath id="e7257aa5f9"><path d="M 133.242188 0 L 25.648438 20.535156 L 50.65625 151.546875 L 158.246094 131.011719 Z M 133.242188 0 " clip-rule="nonzero"/></clipPath><clipPath id="b606cf0706"><path d="M 96 71 L 140 71 L 140 117 L 96 117 Z M 96 71 " clip-rule="nonzero"/></clipPath><clipPath id="a500e9da73"><path d="M 25.695312 20.527344 L 133.289062 -0.0078125 L 158.292969 131.003906 L 50.699219 151.539062 Z M 25.695312 20.527344 " clip-rule="nonzero"/></clipPath><clipPath id="331068ed29"><path d="M 133.242188 0 L 25.648438 20.535156 L 50.65625 151.546875 L 158.246094 131.011719 Z M 133.242188 0 " clip-rule="nonzero"/></clipPath><clipPath id="d9e78f7208"><path d="M 132 64 L 146 64 L 146 72 L 132 72 Z M 132 64 " clip-rule="nonzero"/></clipPath><clipPath id="2ff577f2fb"><path d="M 25.695312 20.527344 L 133.289062 -0.0078125 L 158.292969 131.003906 L 50.699219 151.539062 Z M 25.695312 20.527344 " clip-rule="nonzero"/></clipPath><clipPath id="c5e9900a13"><path d="M 133.242188 0 L 25.648438 20.535156 L 50.65625 151.546875 L 158.246094 131.011719 Z M 133.242188 0 " clip-rule="nonzero"/></clipPath><clipPath id="5a539535f8"><path d="M 135 127 L 143 127 L 143 135 L 135 135 Z M 135 127 " clip-rule="nonzero"/></clipPath><clipPath id="88c5342201"><path d="M 25.695312 20.527344 L 133.289062 -0.0078125 L 158.292969 131.003906 L 50.699219 151.539062 Z M 25.695312 20.527344 " clip-rule="nonzero"/></clipPath><clipPath id="fb8f10a6d1"><path d="M 133.242188 0 L 25.648438 20.535156 L 50.65625 151.546875 L 158.246094 131.011719 Z M 133.242188 0 " clip-rule="nonzero"/></clipPath><clipPath id="9d4378e323"><path d="M 139 70 L 146 70 L 146 78 L 139 78 Z M 139 70 " clip-rule="nonzero"/></clipPath><clipPath id="d6b621cced"><path d="M 25.695312 20.527344 L 133.289062 -0.0078125 L 158.292969 131.003906 L 50.699219 151.539062 Z M 25.695312 20.527344 " clip-rule="nonzero"/></clipPath><clipPath id="cfeb55d16a"><path d="M 133.242188 0 L 25.648438 20.535156 L 50.65625 151.546875 L 158.246094 131.011719 Z M 133.242188 0 " clip-rule="nonzero"/></clipPath><clipPath id="53b2107945"><path d="M 90 110 L 105 110 L 105 131 L 90 131 Z M 90 110 " clip-rule="nonzero"/></clipPath><clipPath id="39cf553c3f"><path d="M 25.695312 20.527344 L 133.289062 -0.0078125 L 158.292969 131.003906 L 50.699219 151.539062 Z M 25.695312 20.527344 " clip-rule="nonzero"/></clipPath><clipPath id="734b436a95"><path d="M 133.242188 0 L 25.648438 20.535156 L 50.65625 151.546875 L 158.246094 131.011719 Z M 133.242188 0 " clip-rule="nonzero"/></clipPath><clipPath id="814adab637"><path d="M 67 36 L 75 36 L 75 44 L 67 44 Z M 67 36 " clip-rule="nonzero"/></clipPath><clipPath id="6ba92b3825"><path d="M 25.695312 20.527344 L 133.289062 -0.0078125 L 158.292969 131.003906 L 50.699219 151.539062 Z M 25.695312 20.527344 " clip-rule="nonzero"/></clipPath><clipPath id="7240289b2a"><path d="M 133.242188 0 L 25.648438 20.535156 L 50.65625 151.546875 L 158.246094 131.011719 Z M 133.242188 0 " clip-rule="nonzero"/></clipPath><clipPath id="b8786c1d6f"><path d="M 61 30 L 68 30 L 68 38 L 61 38 Z M 61 30 " clip-rule="nonzero"/></clipPath><clipPath id="248807e7c1"><path d="M 25.695312 20.527344 L 133.289062 -0.0078125 L 158.292969 131.003906 L 50.699219 151.539062 Z M 25.695312 20.527344 " clip-rule="nonzero"/></clipPath><clipPath id="834be003fc"><path d="M 133.242188 0 L 25.648438 20.535156 L 50.65625 151.546875 L 158.246094 131.011719 Z M 133.242188 0 " clip-rule="nonzero"/></clipPath><clipPath id="ab925448c5"><path d="M 54 24 L 62 24 L 62 32 L 54 32 Z M 54 24 " clip-rule="nonzero"/></clipPath><clipPath id="be137fa95a"><path d="M 25.695312 20.527344 L 133.289062 -0.0078125 L 158.292969 131.003906 L 50.699219 151.539062 Z M 25.695312 20.527344 " clip-rule="nonzero"/></clipPath><clipPath id="c06ff17475"><path d="M 133.242188 0 L 25.648438 20.535156 L 50.65625 151.546875 L 158.246094 131.011719 Z M 133.242188 0 " clip-rule="nonzero"/></clipPath><clipPath id="834a19beba"><path d="M 29 18 L 55 18 L 55 46 L 29 46 Z M 29 18 " clip-rule="nonzero"/></clipPath><clipPath id="045907b40c"><path d="M 25.695312 20.527344 L 133.289062 -0.0078125 L 158.292969 131.003906 L 50.699219 151.539062 Z M 25.695312 20.527344 " clip-rule="nonzero"/></clipPath><clipPath id="8e2f043304"><path d="M 133.242188 0 L 25.648438 20.535156 L 50.65625 151.546875 L 158.246094 131.011719 Z M 133.242188 0 " clip-rule="nonzero"/></clipPath><clipPath id="3209f4f525"><path d="M 122 96 L 142 96 L 142 135 L 122 135 Z M 122 96 " clip-rule="nonzero"/></clipPath><clipPath id="e4962cc387"><path d="M 25.695312 20.527344 L 133.289062 -0.0078125 L 158.292969 131.003906 L 50.699219 151.539062 Z M 25.695312 20.527344 " clip-rule="nonzero"/></clipPath><clipPath id="9a48d7cb7b"><path d="M 133.242188 0 L 25.648438 20.535156 L 50.65625 151.546875 L 158.246094 131.011719 Z M 133.242188 0 " clip-rule="nonzero"/></clipPath><clipPath id="202acff225"><path d="M 141 108 L 155 108 L 155 128 L 141 128 Z M 141 108 " clip-rule="nonzero"/></clipPath><clipPath id="20b0de7357"><path d="M 25.695312 20.527344 L 133.289062 -0.0078125 L 158.292969 131.003906 L 50.699219 151.539062 Z M 25.695312 20.527344 " clip-rule="nonzero"/></clipPath><clipPath id="c270bc2a68"><path d="M 133.242188 0 L 25.648438 20.535156 L 50.65625 151.546875 L 158.246094 131.011719 Z M 133.242188 0 " clip-rule="nonzero"/></clipPath><clipPath id="50a414e452"><path d="M 102 85 L 109 85 L 109 92 L 102 92 Z M 102 85 " clip-rule="nonzero"/></clipPath><clipPath id="083f7872dd"><path d="M 25.695312 20.527344 L 133.289062 -0.0078125 L 158.292969 131.003906 L 50.699219 151.539062 Z M 25.695312 20.527344 " clip-rule="nonzero"/></clipPath><clipPath id="e9deb73152"><path d="M 133.242188 0 L 25.648438 20.535156 L 50.65625 151.546875 L 158.246094 131.011719 Z M 133.242188 0 " clip-rule="nonzero"/></clipPath><clipPath id="dcb01cd3da"><path d="M 95 79 L 103 79 L 103 86 L 95 86 Z M 95 79 " clip-rule="nonzero"/></clipPath><clipPath id="9103484374"><path d="M 25.695312 20.527344 L 133.289062 -0.0078125 L 158.292969 131.003906 L 50.699219 151.539062 Z M 25.695312 20.527344 " clip-rule="nonzero"/></clipPath><clipPath id="466fa19004"><path d="M 133.242188 0 L 25.648438 20.535156 L 50.65625 151.546875 L 158.246094 131.011719 Z M 133.242188 0 " clip-rule="nonzero"/></clipPath><clipPath id="0f5e0f73e8"><path d="M 88 73 L 96 73 L 96 80 L 88 80 Z M 88 73 " clip-rule="nonzero"/></clipPath><clipPath id="a741c3b818"><path d="M 25.695312 20.527344 L 133.289062 -0.0078125 L 158.292969 131.003906 L 50.699219 151.539062 Z M 25.695312 20.527344 " clip-rule="nonzero"/></clipPath><clipPath id="4045d0168f"><path d="M 133.242188 0 L 25.648438 20.535156 L 50.65625 151.546875 L 158.246094 131.011719 Z M 133.242188 0 " clip-rule="nonzero"/></clipPath><clipPath id="2338a411b4"><path d="M 82 67 L 89 67 L 89 74 L 82 74 Z M 82 67 " clip-rule="nonzero"/></clipPath><clipPath id="7d419aa967"><path d="M 25.695312 20.527344 L 133.289062 -0.0078125 L 158.292969 131.003906 L 50.699219 151.539062 Z M 25.695312 20.527344 " clip-rule="nonzero"/></clipPath><clipPath id="73d541c9e8"><path d="M 133.242188 0 L 25.648438 20.535156 L 50.65625 151.546875 L 158.246094 131.011719 Z M 133.242188 0 " clip-rule="nonzero"/></clipPath><clipPath id="e518d2ff73"><path d="M 75 61 L 83 61 L 83 68 L 75 68 Z M 75 61 " clip-rule="nonzero"/></clipPath><clipPath id="3153689a10"><path d="M 25.695312 20.527344 L 133.289062 -0.0078125 L 158.292969 131.003906 L 50.699219 151.539062 Z M 25.695312 20.527344 " clip-rule="nonzero"/></clipPath><clipPath id="329694cb1d"><path d="M 133.242188 0 L 25.648438 20.535156 L 50.65625 151.546875 L 158.246094 131.011719 Z M 133.242188 0 " clip-rule="nonzero"/></clipPath><clipPath id="fb7855c4bb"><path d="M 68 55 L 76 55 L 76 62 L 68 62 Z M 68 55 " clip-rule="nonzero"/></clipPath><clipPath id="b099b632b8"><path d="M 25.695312 20.527344 L 133.289062 -0.0078125 L 158.292969 131.003906 L 50.699219 151.539062 Z M 25.695312 20.527344 " clip-rule="nonzero"/></clipPath><clipPath id="f5a9c21d05"><path d="M 133.242188 0 L 25.648438 20.535156 L 50.65625 151.546875 L 158.246094 131.011719 Z M 133.242188 0 " clip-rule="nonzero"/></clipPath><clipPath id="33688a2978"><path d="M 62 49 L 69 49 L 69 56 L 62 56 Z M 62 49 " clip-rule="nonzero"/></clipPath><clipPath id="e19147b84b"><path d="M 25.695312 20.527344 L 133.289062 -0.0078125 L 158.292969 131.003906 L 50.699219 151.539062 Z M 25.695312 20.527344 " clip-rule="nonzero"/></clipPath><clipPath id="0f47f851f1"><path d="M 133.242188 0 L 25.648438 20.535156 L 50.65625 151.546875 L 158.246094 131.011719 Z M 133.242188 0 " clip-rule="nonzero"/></clipPath><clipPath id="0d69c2b54f"><path d="M 55 43 L 63 43 L 63 51 L 55 51 Z M 55 43 " clip-rule="nonzero"/></clipPath><clipPath id="ba218bdce0"><path d="M 25.695312 20.527344 L 133.289062 -0.0078125 L 158.292969 131.003906 L 50.699219 151.539062 Z M 25.695312 20.527344 " clip-rule="nonzero"/></clipPath><clipPath id="de89904f0a"><path d="M 133.242188 0 L 25.648438 20.535156 L 50.65625 151.546875 L 158.246094 131.011719 Z M 133.242188 0 " clip-rule="nonzero"/></clipPath><clipPath id="7f289ae6a5"><path d="M 49 37 L 56 37 L 56 45 L 49 45 Z M 49 37 " clip-rule="nonzero"/></clipPath><clipPath id="53e3f2b008"><path d="M 25.695312 20.527344 L 133.289062 -0.0078125 L 158.292969 131.003906 L 50.699219 151.539062 Z M 25.695312 20.527344 " clip-rule="nonzero"/></clipPath><clipPath id="ab8273144e"><path d="M 133.242188 0 L 25.648438 20.535156 L 50.65625 151.546875 L 158.246094 131.011719 Z M 133.242188 0 " clip-rule="nonzero"/></clipPath><clipPath id="5b882eb951"><path d="M 40 21 L 115 21 L 115 100 L 40 100 Z M 40 21 " clip-rule="nonzero"/></clipPath><clipPath id="c0e3a72729"><path d="M 14.765625 3.609375 L 123.671875 15.324219 L 109.40625 147.9375 L 0.5 136.222656 Z M 14.765625 3.609375 " clip-rule="nonzero"/></clipPath><clipPath id="da3893d57d"><path d="M 14.765625 3.609375 L 123.671875 15.324219 L 109.40625 147.9375 L 0.5 136.222656 Z M 14.765625 3.609375 " clip-rule="nonzero"/></clipPath><clipPath id="f3926705a4"><path d="M 53 111 L 61 111 L 61 118 L 53 118 Z M 53 111 " clip-rule="nonzero"/></clipPath><clipPath id="90ccbd9a4a"><path d="M 14.765625 3.609375 L 123.671875 15.324219 L 109.40625 147.9375 L 0.5 136.222656 Z M 14.765625 3.609375 " clip-rule="nonzero"/></clipPath><clipPath id="09a0fc73b6"><path d="M 14.765625 3.609375 L 123.671875 15.324219 L 109.40625 147.9375 L 0.5 136.222656 Z M 14.765625 3.609375 " clip-rule="nonzero"/></clipPath><clipPath id="67fa1e2940"><path d="M 40 99 L 48 99 L 48 106 L 40 106 Z M 40 99 " clip-rule="nonzero"/></clipPath><clipPath id="3edcf90fd6"><path d="M 14.765625 3.609375 L 123.671875 15.324219 L 109.40625 147.9375 L 0.5 136.222656 Z M 14.765625 3.609375 " clip-rule="nonzero"/></clipPath><clipPath id="e03a880b23"><path d="M 14.765625 3.609375 L 123.671875 15.324219 L 109.40625 147.9375 L 0.5 136.222656 Z M 14.765625 3.609375 " clip-rule="nonzero"/></clipPath><clipPath id="2041e9cc26"><path d="M 27 86 L 35 86 L 35 94 L 27 94 Z M 27 86 " clip-rule="nonzero"/></clipPath><clipPath id="cf01e2a01d"><path d="M 14.765625 3.609375 L 123.671875 15.324219 L 109.40625 147.9375 L 0.5 136.222656 Z M 14.765625 3.609375 " clip-rule="nonzero"/></clipPath><clipPath id="f941df49ea"><path d="M 14.765625 3.609375 L 123.671875 15.324219 L 109.40625 147.9375 L 0.5 136.222656 Z M 14.765625 3.609375 " clip-rule="nonzero"/></clipPath><clipPath id="d3721c1720"><path d="M 27 99 L 35 99 L 35 119 L 27 119 Z M 27 99 " clip-rule="nonzero"/></clipPath><clipPath id="74148f80dd"><path d="M 14.765625 3.609375 L 123.671875 15.324219 L 109.40625 147.9375 L 0.5 136.222656 Z M 14.765625 3.609375 " clip-rule="nonzero"/></clipPath><clipPath id="0fa519178b"><path d="M 14.765625 3.609375 L 123.671875 15.324219 L 109.40625 147.9375 L 0.5 136.222656 Z M 14.765625 3.609375 " clip-rule="nonzero"/></clipPath><clipPath id="b0728ed519"><path d="M 15 112 L 23 112 L 23 132 L 15 132 Z M 15 112 " clip-rule="nonzero"/></clipPath><clipPath id="b7df35fdcd"><path d="M 14.765625 3.609375 L 123.671875 15.324219 L 109.40625 147.9375 L 0.5 136.222656 Z M 14.765625 3.609375 " clip-rule="nonzero"/></clipPath><clipPath id="fe5110e3be"><path d="M 14.765625 3.609375 L 123.671875 15.324219 L 109.40625 147.9375 L 0.5 136.222656 Z M 14.765625 3.609375 " clip-rule="nonzero"/></clipPath><clipPath id="93ca5290bb"><path d="M 14 74 L 22 74 L 22 82 L 14 82 Z M 14 74 " clip-rule="nonzero"/></clipPath><clipPath id="20cc1a11ce"><path d="M 14.765625 3.609375 L 123.671875 15.324219 L 109.40625 147.9375 L 0.5 136.222656 Z M 14.765625 3.609375 " clip-rule="nonzero"/></clipPath><clipPath id="33b8b54c7a"><path d="M 14.765625 3.609375 L 123.671875 15.324219 L 109.40625 147.9375 L 0.5 136.222656 Z M 14.765625 3.609375 " clip-rule="nonzero"/></clipPath><clipPath id="a147784cc5"><path d="M 59 92 L 66 92 L 66 99 L 59 99 Z M 59 92 " clip-rule="nonzero"/></clipPath><clipPath id="6cbf07f62b"><path d="M 14.765625 3.609375 L 123.671875 15.324219 L 109.40625 147.9375 L 0.5 136.222656 Z M 14.765625 3.609375 " clip-rule="nonzero"/></clipPath><clipPath id="58dcb88005"><path d="M 14.765625 3.609375 L 123.671875 15.324219 L 109.40625 147.9375 L 0.5 136.222656 Z M 14.765625 3.609375 " clip-rule="nonzero"/></clipPath><clipPath id="c4e88a0093"><path d="M 65 85 L 72 85 L 72 93 L 65 93 Z M 65 85 " clip-rule="nonzero"/></clipPath><clipPath id="925d0244dd"><path d="M 14.765625 3.609375 L 123.671875 15.324219 L 109.40625 147.9375 L 0.5 136.222656 Z M 14.765625 3.609375 " clip-rule="nonzero"/></clipPath><clipPath id="185b4d4557"><path d="M 14.765625 3.609375 L 123.671875 15.324219 L 109.40625 147.9375 L 0.5 136.222656 Z M 14.765625 3.609375 " clip-rule="nonzero"/></clipPath><clipPath id="b461b7feee"><path d="M 71 79 L 79 79 L 79 86 L 71 86 Z M 71 79 " clip-rule="nonzero"/></clipPath><clipPath id="964d98fa2f"><path d="M 14.765625 3.609375 L 123.671875 15.324219 L 109.40625 147.9375 L 0.5 136.222656 Z M 14.765625 3.609375 " clip-rule="nonzero"/></clipPath><clipPath id="bfedc2bec6"><path d="M 14.765625 3.609375 L 123.671875 15.324219 L 109.40625 147.9375 L 0.5 136.222656 Z M 14.765625 3.609375 " clip-rule="nonzero"/></clipPath><clipPath id="350d9673c5"><path d="M 77 72 L 85 72 L 85 80 L 77 80 Z M 77 72 " clip-rule="nonzero"/></clipPath><clipPath id="26a8b82726"><path d="M 14.765625 3.609375 L 123.671875 15.324219 L 109.40625 147.9375 L 0.5 136.222656 Z M 14.765625 3.609375 " clip-rule="nonzero"/></clipPath><clipPath id="4b6a934eee"><path d="M 14.765625 3.609375 L 123.671875 15.324219 L 109.40625 147.9375 L 0.5 136.222656 Z M 14.765625 3.609375 " clip-rule="nonzero"/></clipPath><clipPath id="5995028008"><path d="M 83 66 L 91 66 L 91 73 L 83 73 Z M 83 66 " clip-rule="nonzero"/></clipPath><clipPath id="b428082c8f"><path d="M 14.765625 3.609375 L 123.671875 15.324219 L 109.40625 147.9375 L 0.5 136.222656 Z M 14.765625 3.609375 " clip-rule="nonzero"/></clipPath><clipPath id="95342c8509"><path d="M 14.765625 3.609375 L 123.671875 15.324219 L 109.40625 147.9375 L 0.5 136.222656 Z M 14.765625 3.609375 " clip-rule="nonzero"/></clipPath><clipPath id="f6bc48196d"><path d="M 89 59 L 97 59 L 97 67 L 89 67 Z M 89 59 " clip-rule="nonzero"/></clipPath><clipPath id="2db5bafd57"><path d="M 14.765625 3.609375 L 123.671875 15.324219 L 109.40625 147.9375 L 0.5 136.222656 Z M 14.765625 3.609375 " clip-rule="nonzero"/></clipPath><clipPath id="a7137ca567"><path d="M 14.765625 3.609375 L 123.671875 15.324219 L 109.40625 147.9375 L 0.5 136.222656 Z M 14.765625 3.609375 " clip-rule="nonzero"/></clipPath><clipPath id="374b8d25f8"><path d="M 95 53 L 103 53 L 103 60 L 95 60 Z M 95 53 " clip-rule="nonzero"/></clipPath><clipPath id="02609e6681"><path d="M 14.765625 3.609375 L 123.671875 15.324219 L 109.40625 147.9375 L 0.5 136.222656 Z M 14.765625 3.609375 " clip-rule="nonzero"/></clipPath><clipPath id="b8e6830b4d"><path d="M 14.765625 3.609375 L 123.671875 15.324219 L 109.40625 147.9375 L 0.5 136.222656 Z M 14.765625 3.609375 " clip-rule="nonzero"/></clipPath><clipPath id="8227dfc557"><path d="M 102 46 L 109 46 L 109 54 L 102 54 Z M 102 46 " clip-rule="nonzero"/></clipPath><clipPath id="51ab49ca9e"><path d="M 14.765625 3.609375 L 123.671875 15.324219 L 109.40625 147.9375 L 0.5 136.222656 Z M 14.765625 3.609375 " clip-rule="nonzero"/></clipPath><clipPath id="4ffec6a3ef"><path d="M 14.765625 3.609375 L 123.671875 15.324219 L 109.40625 147.9375 L 0.5 136.222656 Z M 14.765625 3.609375 " clip-rule="nonzero"/></clipPath><clipPath id="2f64943b49"><path d="M 108 40 L 115 40 L 115 47 L 108 47 Z M 108 40 " clip-rule="nonzero"/></clipPath><clipPath id="9b53714594"><path d="M 14.765625 3.609375 L 123.671875 15.324219 L 109.40625 147.9375 L 0.5 136.222656 Z M 14.765625 3.609375 " clip-rule="nonzero"/></clipPath><clipPath id="1f91a89422"><path d="M 14.765625 3.609375 L 123.671875 15.324219 L 109.40625 147.9375 L 0.5 136.222656 Z M 14.765625 3.609375 " clip-rule="nonzero"/></clipPath><clipPath id="5ea1a20bb2"><path d="M 39 73 L 47 73 L 47 81 L 39 81 Z M 39 73 " clip-rule="nonzero"/></clipPath><clipPath id="62750cbfb0"><path d="M 14.765625 3.609375 L 123.671875 15.324219 L 109.40625 147.9375 L 0.5 136.222656 Z M 14.765625 3.609375 " clip-rule="nonzero"/></clipPath><clipPath id="a293713939"><path d="M 14.765625 3.609375 L 123.671875 15.324219 L 109.40625 147.9375 L 0.5 136.222656 Z M 14.765625 3.609375 " clip-rule="nonzero"/></clipPath><clipPath id="0981322d3a"><path d="M 45 67 L 53 67 L 53 74 L 45 74 Z M 45 67 " clip-rule="nonzero"/></clipPath><clipPath id="eeb1b2548c"><path d="M 14.765625 3.609375 L 123.671875 15.324219 L 109.40625 147.9375 L 0.5 136.222656 Z M 14.765625 3.609375 " clip-rule="nonzero"/></clipPath><clipPath id="2898f37da2"><path d="M 14.765625 3.609375 L 123.671875 15.324219 L 109.40625 147.9375 L 0.5 136.222656 Z M 14.765625 3.609375 " clip-rule="nonzero"/></clipPath><clipPath id="71ecb6cea1"><path d="M 52 60 L 59 60 L 59 68 L 52 68 Z M 52 60 " clip-rule="nonzero"/></clipPath><clipPath id="60ef4e3fb4"><path d="M 14.765625 3.609375 L 123.671875 15.324219 L 109.40625 147.9375 L 0.5 136.222656 Z M 14.765625 3.609375 " clip-rule="nonzero"/></clipPath><clipPath id="fd6b29e17b"><path d="M 14.765625 3.609375 L 123.671875 15.324219 L 109.40625 147.9375 L 0.5 136.222656 Z M 14.765625 3.609375 " clip-rule="nonzero"/></clipPath><clipPath id="d43f9ad3ba"><path d="M 58 54 L 65 54 L 65 61 L 58 61 Z M 58 54 " clip-rule="nonzero"/></clipPath><clipPath id="a2f7547846"><path d="M 14.765625 3.609375 L 123.671875 15.324219 L 109.40625 147.9375 L 0.5 136.222656 Z M 14.765625 3.609375 " clip-rule="nonzero"/></clipPath><clipPath id="9ae7043571"><path d="M 14.765625 3.609375 L 123.671875 15.324219 L 109.40625 147.9375 L 0.5 136.222656 Z M 14.765625 3.609375 " clip-rule="nonzero"/></clipPath><clipPath id="812e0976c3"><path d="M 64 47 L 71 47 L 71 55 L 64 55 Z M 64 47 " clip-rule="nonzero"/></clipPath><clipPath id="d42de403db"><path d="M 14.765625 3.609375 L 123.671875 15.324219 L 109.40625 147.9375 L 0.5 136.222656 Z M 14.765625 3.609375 " clip-rule="nonzero"/></clipPath><clipPath id="e7c9e3594e"><path d="M 14.765625 3.609375 L 123.671875 15.324219 L 109.40625 147.9375 L 0.5 136.222656 Z M 14.765625 3.609375 " clip-rule="nonzero"/></clipPath><clipPath id="239afb2ff2"><path d="M 70 41 L 77 41 L 77 48 L 70 48 Z M 70 41 " clip-rule="nonzero"/></clipPath><clipPath id="0e1802f337"><path d="M 14.765625 3.609375 L 123.671875 15.324219 L 109.40625 147.9375 L 0.5 136.222656 Z M 14.765625 3.609375 " clip-rule="nonzero"/></clipPath><clipPath id="31e193a54e"><path d="M 14.765625 3.609375 L 123.671875 15.324219 L 109.40625 147.9375 L 0.5 136.222656 Z M 14.765625 3.609375 " clip-rule="nonzero"/></clipPath><clipPath id="e6d57bb302"><path d="M 66 117 L 73 117 L 73 130 L 66 130 Z M 66 117 " clip-rule="nonzero"/></clipPath><clipPath id="e9c1cfd286"><path d="M 14.765625 3.609375 L 123.671875 15.324219 L 109.40625 147.9375 L 0.5 136.222656 Z M 14.765625 3.609375 " clip-rule="nonzero"/></clipPath><clipPath id="c01c0ee821"><path d="M 14.765625 3.609375 L 123.671875 15.324219 L 109.40625 147.9375 L 0.5 136.222656 Z M 14.765625 3.609375 " clip-rule="nonzero"/></clipPath><clipPath id="399763908a"><path d="M 14 74 L 60 74 L 60 119 L 14 119 Z M 14 74 " clip-rule="nonzero"/></clipPath><clipPath id="7483897536"><path d="M 14.765625 3.609375 L 123.671875 15.324219 L 109.40625 147.9375 L 0.5 136.222656 Z M 14.765625 3.609375 " clip-rule="nonzero"/></clipPath><clipPath id="4b40e6f70c"><path d="M 14.765625 3.609375 L 123.671875 15.324219 L 109.40625 147.9375 L 0.5 136.222656 Z M 14.765625 3.609375 " clip-rule="nonzero"/></clipPath><clipPath id="dd492b5415"><path d="M 8 68 L 21 68 L 21 75 L 8 75 Z M 8 68 " clip-rule="nonzero"/></clipPath><clipPath id="bd2e015712"><path d="M 14.765625 3.609375 L 123.671875 15.324219 L 109.40625 147.9375 L 0.5 136.222656 Z M 14.765625 3.609375 " clip-rule="nonzero"/></clipPath><clipPath id="038ac52b34"><path d="M 14.765625 3.609375 L 123.671875 15.324219 L 109.40625 147.9375 L 0.5 136.222656 Z M 14.765625 3.609375 " clip-rule="nonzero"/></clipPath><clipPath id="279f49a5c4"><path d="M 16 131 L 23 131 L 23 138 L 16 138 Z M 16 131 " clip-rule="nonzero"/></clipPath><clipPath id="f46180230a"><path d="M 14.765625 3.609375 L 123.671875 15.324219 L 109.40625 147.9375 L 0.5 136.222656 Z M 14.765625 3.609375 " clip-rule="nonzero"/></clipPath><clipPath id="d5c4391d62"><path d="M 14.765625 3.609375 L 123.671875 15.324219 L 109.40625 147.9375 L 0.5 136.222656 Z M 14.765625 3.609375 " clip-rule="nonzero"/></clipPath><clipPath id="f3a683cc0f"><path d="M 8 74 L 15 74 L 15 82 L 8 82 Z M 8 74 " clip-rule="nonzero"/></clipPath><clipPath id="7d11bd1bc2"><path d="M 14.765625 3.609375 L 123.671875 15.324219 L 109.40625 147.9375 L 0.5 136.222656 Z M 14.765625 3.609375 " clip-rule="nonzero"/></clipPath><clipPath id="f9382fbd04"><path d="M 14.765625 3.609375 L 123.671875 15.324219 L 109.40625 147.9375 L 0.5 136.222656 Z M 14.765625 3.609375 " clip-rule="nonzero"/></clipPath><clipPath id="a5b15f0d9b"><path d="M 53 111 L 67 111 L 67 131 L 53 131 Z M 53 111 " clip-rule="nonzero"/></clipPath><clipPath id="da80e555e6"><path d="M 14.765625 3.609375 L 123.671875 15.324219 L 109.40625 147.9375 L 0.5 136.222656 Z M 14.765625 3.609375 " clip-rule="nonzero"/></clipPath><clipPath id="6a9437dfcc"><path d="M 14.765625 3.609375 L 123.671875 15.324219 L 109.40625 147.9375 L 0.5 136.222656 Z M 14.765625 3.609375 " clip-rule="nonzero"/></clipPath><clipPath id="1a25e14365"><path d="M 76 34 L 84 34 L 84 42 L 76 42 Z M 76 34 " clip-rule="nonzero"/></clipPath><clipPath id="f1e637a1cb"><path d="M 14.765625 3.609375 L 123.671875 15.324219 L 109.40625 147.9375 L 0.5 136.222656 Z M 14.765625 3.609375 " clip-rule="nonzero"/></clipPath><clipPath id="4e8703e3e5"><path d="M 14.765625 3.609375 L 123.671875 15.324219 L 109.40625 147.9375 L 0.5 136.222656 Z M 14.765625 3.609375 " clip-rule="nonzero"/></clipPath><clipPath id="8166fb3fa3"><path d="M 82 28 L 90 28 L 90 35 L 82 35 Z M 82 28 " clip-rule="nonzero"/></clipPath><clipPath id="cf0c10adb6"><path d="M 14.765625 3.609375 L 123.671875 15.324219 L 109.40625 147.9375 L 0.5 136.222656 Z M 14.765625 3.609375 " clip-rule="nonzero"/></clipPath><clipPath id="ce0d78110c"><path d="M 14.765625 3.609375 L 123.671875 15.324219 L 109.40625 147.9375 L 0.5 136.222656 Z M 14.765625 3.609375 " clip-rule="nonzero"/></clipPath><clipPath id="ae720ed0b7"><path d="M 88 21 L 96 21 L 96 29 L 88 29 Z M 88 21 " clip-rule="nonzero"/></clipPath><clipPath id="0e99d689f6"><path d="M 14.765625 3.609375 L 123.671875 15.324219 L 109.40625 147.9375 L 0.5 136.222656 Z M 14.765625 3.609375 " clip-rule="nonzero"/></clipPath><clipPath id="5f266c158d"><path d="M 14.765625 3.609375 L 123.671875 15.324219 L 109.40625 147.9375 L 0.5 136.222656 Z M 14.765625 3.609375 " clip-rule="nonzero"/></clipPath><clipPath id="4ca435b924"><path d="M 94 14 L 121 14 L 121 41 L 94 41 Z M 94 14 " clip-rule="nonzero"/></clipPath><clipPath id="595b65ff37"><path d="M 14.765625 3.609375 L 123.671875 15.324219 L 109.40625 147.9375 L 0.5 136.222656 Z M 14.765625 3.609375 " clip-rule="nonzero"/></clipPath><clipPath id="a57e69ef45"><path d="M 14.765625 3.609375 L 123.671875 15.324219 L 109.40625 147.9375 L 0.5 136.222656 Z M 14.765625 3.609375 " clip-rule="nonzero"/></clipPath><clipPath id="6781d9791f"><path d="M 15 99 L 36 99 L 36 138 L 15 138 Z M 15 99 " clip-rule="nonzero"/></clipPath><clipPath id="b5f2f031d2"><path d="M 14.765625 3.609375 L 123.671875 15.324219 L 109.40625 147.9375 L 0.5 136.222656 Z M 14.765625 3.609375 " clip-rule="nonzero"/></clipPath><clipPath id="d08de6e9a1"><path d="M 14.765625 3.609375 L 123.671875 15.324219 L 109.40625 147.9375 L 0.5 136.222656 Z M 14.765625 3.609375 " clip-rule="nonzero"/></clipPath><clipPath id="ac97ac1804"><path d="M 3 112 L 17 112 L 17 132 L 3 132 Z M 3 112 " clip-rule="nonzero"/></clipPath><clipPath id="46246db97e"><path d="M 14.765625 3.609375 L 123.671875 15.324219 L 109.40625 147.9375 L 0.5 136.222656 Z M 14.765625 3.609375 " clip-rule="nonzero"/></clipPath><clipPath id="4f5a05b6df"><path d="M 14.765625 3.609375 L 123.671875 15.324219 L 109.40625 147.9375 L 0.5 136.222656 Z M 14.765625 3.609375 " clip-rule="nonzero"/></clipPath><clipPath id="9fcd0bec88"><path d="M 46 86 L 53 86 L 53 93 L 46 93 Z M 46 86 " clip-rule="nonzero"/></clipPath><clipPath id="24a128fad4"><path d="M 14.765625 3.609375 L 123.671875 15.324219 L 109.40625 147.9375 L 0.5 136.222656 Z M 14.765625 3.609375 " clip-rule="nonzero"/></clipPath><clipPath id="e2740e2ae0"><path d="M 14.765625 3.609375 L 123.671875 15.324219 L 109.40625 147.9375 L 0.5 136.222656 Z M 14.765625 3.609375 " clip-rule="nonzero"/></clipPath><clipPath id="07486c78de"><path d="M 52 79 L 60 79 L 60 87 L 52 87 Z M 52 79 " clip-rule="nonzero"/></clipPath><clipPath id="82c3a0347f"><path d="M 14.765625 3.609375 L 123.671875 15.324219 L 109.40625 147.9375 L 0.5 136.222656 Z M 14.765625 3.609375 " clip-rule="nonzero"/></clipPath><clipPath id="13ad10acbf"><path d="M 14.765625 3.609375 L 123.671875 15.324219 L 109.40625 147.9375 L 0.5 136.222656 Z M 14.765625 3.609375 " clip-rule="nonzero"/></clipPath><clipPath id="2b44a989d4"><path d="M 58 73 L 66 73 L 66 80 L 58 80 Z M 58 73 " clip-rule="nonzero"/></clipPath><clipPath id="2ad6066271"><path d="M 14.765625 3.609375 L 123.671875 15.324219 L 109.40625 147.9375 L 0.5 136.222656 Z M 14.765625 3.609375 " clip-rule="nonzero"/></clipPath><clipPath id="47f2426286"><path d="M 14.765625 3.609375 L 123.671875 15.324219 L 109.40625 147.9375 L 0.5 136.222656 Z M 14.765625 3.609375 " clip-rule="nonzero"/></clipPath><clipPath id="2b48929fd0"><path d="M 64 66 L 72 66 L 72 74 L 64 74 Z M 64 66 " clip-rule="nonzero"/></clipPath><clipPath id="6b972d9394"><path d="M 14.765625 3.609375 L 123.671875 15.324219 L 109.40625 147.9375 L 0.5 136.222656 Z M 14.765625 3.609375 " clip-rule="nonzero"/></clipPath><clipPath id="0288a79e0d"><path d="M 14.765625 3.609375 L 123.671875 15.324219 L 109.40625 147.9375 L 0.5 136.222656 Z M 14.765625 3.609375 " clip-rule="nonzero"/></clipPath><clipPath id="353c14f05b"><path d="M 70 60 L 78 60 L 78 67 L 70 67 Z M 70 60 " clip-rule="nonzero"/></clipPath><clipPath id="2a35e47d4f"><path d="M 14.765625 3.609375 L 123.671875 15.324219 L 109.40625 147.9375 L 0.5 136.222656 Z M 14.765625 3.609375 " clip-rule="nonzero"/></clipPath><clipPath id="0269731658"><path d="M 14.765625 3.609375 L 123.671875 15.324219 L 109.40625 147.9375 L 0.5 136.222656 Z M 14.765625 3.609375 " clip-rule="nonzero"/></clipPath><clipPath id="08b0b9dde8"><path d="M 77 53 L 84 53 L 84 61 L 77 61 Z M 77 53 " clip-rule="nonzero"/></clipPath><clipPath id="f4951db947"><path d="M 14.765625 3.609375 L 123.671875 15.324219 L 109.40625 147.9375 L 0.5 136.222656 Z M 14.765625 3.609375 " clip-rule="nonzero"/></clipPath><clipPath id="e07b3aa934"><path d="M 14.765625 3.609375 L 123.671875 15.324219 L 109.40625 147.9375 L 0.5 136.222656 Z M 14.765625 3.609375 " clip-rule="nonzero"/></clipPath><clipPath id="f6674cc9b4"><path d="M 83 47 L 90 47 L 90 54 L 83 54 Z M 83 47 " clip-rule="nonzero"/></clipPath><clipPath id="f0442c4fb5"><path d="M 14.765625 3.609375 L 123.671875 15.324219 L 109.40625 147.9375 L 0.5 136.222656 Z M 14.765625 3.609375 " clip-rule="nonzero"/></clipPath><clipPath id="7eff6072a6"><path d="M 14.765625 3.609375 L 123.671875 15.324219 L 109.40625 147.9375 L 0.5 136.222656 Z M 14.765625 3.609375 " clip-rule="nonzero"/></clipPath><clipPath id="9d5c8f18c6"><path d="M 89 40 L 96 40 L 96 48 L 89 48 Z M 89 40 " clip-rule="nonzero"/></clipPath><clipPath id="a638cf445d"><path d="M 14.765625 3.609375 L 123.671875 15.324219 L 109.40625 147.9375 L 0.5 136.222656 Z M 14.765625 3.609375 " clip-rule="nonzero"/></clipPath><clipPath id="0964464386"><path d="M 14.765625 3.609375 L 123.671875 15.324219 L 109.40625 147.9375 L 0.5 136.222656 Z M 14.765625 3.609375 " clip-rule="nonzero"/></clipPath><clipPath id="3c28b2c76f"><path d="M 95 34 L 102 34 L 102 41 L 95 41 Z M 95 34 " clip-rule="nonzero"/></clipPath><clipPath id="a1f5bcee8a"><path d="M 14.765625 3.609375 L 123.671875 15.324219 L 109.40625 147.9375 L 0.5 136.222656 Z M 14.765625 3.609375 " clip-rule="nonzero"/></clipPath><clipPath id="d96477431b"><path d="M 14.765625 3.609375 L 123.671875 15.324219 L 109.40625 147.9375 L 0.5 136.222656 Z M 14.765625 3.609375 " clip-rule="nonzero"/></clipPath></defs><g clip-path="url(#f64fc37209)"><g clip-path="url(#8e62e9899e)"><g clip-path="url(#5363944962)"><path fill="#2e0266" d="M 43.101562 44.375 L 36.804688 44.707031 L 36.148438 32.117188 L 35.816406 25.824219 L 54.703125 24.839844 L 55.03125 31.132812 L 61.324219 30.800781 L 61.652344 37.097656 L 67.945312 36.773438 L 68.277344 43.0625 L 74.566406 42.734375 L 74.898438 49.03125 L 81.195312 48.699219 L 82.507812 73.875 L 81.519531 54.996094 L 87.816406 54.664062 L 89.128906 79.84375 L 88.140625 60.960938 L 94.4375 60.632812 L 94.769531 66.925781 L 101.0625 66.597656 L 101.390625 72.890625 L 107.683594 72.5625 L 108.011719 78.855469 L 114.308594 78.53125 L 114.964844 91.117188 L 108.667969 91.445312 L 108.566406 89.472656 L 109 97.742188 L 102.703125 98.066406 L 96.410156 98.394531 L 96.082031 92.105469 L 89.789062 92.429688 L 89.457031 86.136719 L 83.167969 86.464844 L 82.835938 80.171875 L 82.515625 74.011719 L 82.835938 80.171875 L 76.539062 80.503906 L 76.214844 74.207031 L 69.917969 74.535156 L 69.589844 68.238281 L 68.644531 50.121094 L 69.261719 61.949219 L 69.589844 68.238281 L 63.296875 68.570312 L 62.964844 62.273438 L 56.675781 62.605469 L 56.34375 56.308594 L 50.050781 56.636719 L 49.722656 50.339844 L 43.425781 50.671875 Z M 43.101562 44.375 " fill-opacity="1" fill-rule="nonzero"/></g></g></g><g clip-path="url(#5c9ff4420e)"><g clip-path="url(#fa4b2c991d)"><g clip-path="url(#fffbed9d91)"><path fill="#2e0266" d="M 103.363281 110.65625 L 97.066406 110.984375 L 97.394531 117.28125 L 103.691406 116.953125 Z M 103.363281 110.65625 " fill-opacity="1" fill-rule="nonzero"/></g></g></g><g clip-path="url(#bcc5887682)"><g clip-path="url(#255e24b36d)"><g clip-path="url(#ac0a122799)"><path fill="#2e0266" d="M 115.296875 97.410156 L 109 97.738281 L 109.328125 104.03125 L 115.625 103.703125 Z M 115.296875 97.410156 " fill-opacity="1" fill-rule="nonzero"/></g></g></g><g clip-path="url(#662e20ba64)"><g clip-path="url(#b31350780c)"><g clip-path="url(#fdb79f7421)"><path fill="#2e0266" d="M 127.222656 84.167969 L 120.929688 84.496094 L 121.257812 90.789062 L 127.550781 90.460938 Z M 127.222656 84.167969 " fill-opacity="1" fill-rule="nonzero"/></g></g></g><g clip-path="url(#460715649f)"><g clip-path="url(#3360b8b61f)"><g clip-path="url(#90a10e9f29)"><path fill="#2e0266" d="M 127.882812 96.753906 L 121.589844 97.082031 L 122.574219 115.960938 L 128.867188 115.632812 Z M 127.882812 96.753906 " fill-opacity="1" fill-rule="nonzero"/></g></g></g><g clip-path="url(#cd25609565)"><g clip-path="url(#769c97e099)"><g clip-path="url(#b136cd74c7)"><path fill="#2e0266" d="M 141.128906 108.683594 L 134.832031 109.011719 L 135.816406 127.894531 L 142.113281 127.566406 Z M 141.128906 108.683594 " fill-opacity="1" fill-rule="nonzero"/></g></g></g><g clip-path="url(#e1411ab6d9)"><g clip-path="url(#3cc0efc171)"><g clip-path="url(#a5f0c85ccd)"><path fill="#2e0266" d="M 139.15625 70.917969 L 132.863281 71.246094 L 133.191406 77.542969 L 139.484375 77.214844 Z M 139.15625 70.917969 " fill-opacity="1" fill-rule="nonzero"/></g></g></g><g clip-path="url(#f5f8fe11e9)"><g clip-path="url(#6a22ce862c)"><g clip-path="url(#507fcf97f6)"><path fill="#4ffaff" d="M 96.082031 92.101562 L 89.789062 92.429688 L 90.117188 98.726562 L 96.414062 98.398438 Z M 96.082031 92.101562 " fill-opacity="1" fill-rule="nonzero"/></g></g></g><g clip-path="url(#d30f4ad03d)"><g clip-path="url(#72854ff272)"><g clip-path="url(#04849ec4d4)"><path fill="#4ffaff" d="M 89.460938 86.140625 L 83.167969 86.46875 L 83.496094 92.761719 L 89.789062 92.433594 Z M 89.460938 86.140625 " fill-opacity="1" fill-rule="nonzero"/></g></g></g><g clip-path="url(#45f06689a9)"><g clip-path="url(#2579b2243e)"><g clip-path="url(#5fc6f91296)"><path fill="#4ffaff" d="M 82.835938 80.171875 L 76.539062 80.5 L 76.871094 86.792969 L 83.164062 86.464844 Z M 82.835938 80.171875 " fill-opacity="1" fill-rule="nonzero"/></g></g></g><g clip-path="url(#a994a628eb)"><g clip-path="url(#2d18bb432f)"><g clip-path="url(#958f6c015a)"><path fill="#4ffaff" d="M 76.214844 74.207031 L 69.917969 74.535156 L 70.246094 80.828125 L 76.542969 80.5 Z M 76.214844 74.207031 " fill-opacity="1" fill-rule="nonzero"/></g></g></g><g clip-path="url(#3fb40f22c9)"><g clip-path="url(#248ee8d963)"><g clip-path="url(#99d0b5bbf5)"><path fill="#4ffaff" d="M 69.59375 68.242188 L 63.296875 68.570312 L 63.625 74.867188 L 69.921875 74.539062 Z M 69.59375 68.242188 " fill-opacity="1" fill-rule="nonzero"/></g></g></g><g clip-path="url(#6e26498865)"><g clip-path="url(#599faab080)"><g clip-path="url(#f47155d12d)"><path fill="#4ffaff" d="M 62.972656 62.273438 L 56.675781 62.601562 L 57.003906 68.898438 L 63.300781 68.570312 Z M 62.972656 62.273438 " fill-opacity="1" fill-rule="nonzero"/></g></g></g><g clip-path="url(#32aa89ef75)"><g clip-path="url(#acd6a4a694)"><g clip-path="url(#ee21d7c565)"><path fill="#4ffaff" d="M 56.34375 56.308594 L 50.050781 56.636719 L 50.378906 62.933594 L 56.671875 62.605469 Z M 56.34375 56.308594 " fill-opacity="1" fill-rule="nonzero"/></g></g></g><g clip-path="url(#6b8d78cada)"><g clip-path="url(#bdfe41dc38)"><g clip-path="url(#00ea8d0ce2)"><path fill="#4ffaff" d="M 49.722656 50.34375 L 43.429688 50.671875 L 43.757812 56.96875 L 50.050781 56.640625 Z M 49.722656 50.34375 " fill-opacity="1" fill-rule="nonzero"/></g></g></g><g clip-path="url(#3eb854a1dc)"><g clip-path="url(#8916249ba8)"><g clip-path="url(#97a35fe371)"><path fill="#4ffaff" d="M 43.101562 44.375 L 36.804688 44.707031 L 37.132812 51 L 43.429688 50.671875 Z M 43.101562 44.375 " fill-opacity="1" fill-rule="nonzero"/></g></g></g><g clip-path="url(#cee0b32b67)"><g clip-path="url(#a5c34f85d6)"><g clip-path="url(#0f740084e8)"><path fill="#4ffaff" d="M 113.980469 72.234375 L 107.683594 72.5625 L 108.011719 78.855469 L 114.308594 78.527344 Z M 113.980469 72.234375 " fill-opacity="1" fill-rule="nonzero"/></g></g></g><g clip-path="url(#985989e7b8)"><g clip-path="url(#afceb020f9)"><g clip-path="url(#b4e9158d6c)"><path fill="#4ffaff" d="M 107.359375 66.269531 L 101.0625 66.597656 L 101.390625 72.894531 L 107.6875 72.566406 Z M 107.359375 66.269531 " fill-opacity="1" fill-rule="nonzero"/></g></g></g><g clip-path="url(#90ee0ed68e)"><g clip-path="url(#0c0ff21a32)"><g clip-path="url(#dd6ba11b22)"><path fill="#4ffaff" d="M 100.734375 60.304688 L 94.4375 60.632812 L 94.765625 66.929688 L 101.0625 66.601562 Z M 100.734375 60.304688 " fill-opacity="1" fill-rule="nonzero"/></g></g></g><g clip-path="url(#0eefece03b)"><g clip-path="url(#92e4ce0b94)"><g clip-path="url(#9d752d3371)"><path fill="#4ffaff" d="M 94.109375 54.335938 L 87.816406 54.664062 L 88.144531 60.960938 L 94.4375 60.632812 Z M 94.109375 54.335938 " fill-opacity="1" fill-rule="nonzero"/></g></g></g><g clip-path="url(#9dded43c6b)"><g clip-path="url(#48f49477d6)"><g clip-path="url(#46085f85c4)"><path fill="#4ffaff" d="M 87.488281 48.371094 L 81.195312 48.699219 L 81.523438 54.996094 L 87.816406 54.667969 Z M 87.488281 48.371094 " fill-opacity="1" fill-rule="nonzero"/></g></g></g><g clip-path="url(#8f477a9db2)"><g clip-path="url(#30351ff5d6)"><g clip-path="url(#3992c7e08e)"><path fill="#4ffaff" d="M 80.867188 42.410156 L 74.574219 42.738281 L 74.902344 49.03125 L 81.195312 48.703125 Z M 80.867188 42.410156 " fill-opacity="1" fill-rule="nonzero"/></g></g></g><g clip-path="url(#0e4fe3e52f)"><g clip-path="url(#cd91cdb20d)"><g clip-path="url(#e7257aa5f9)"><path fill="#4ffaff" d="M 91.105469 117.609375 L 84.808594 117.9375 L 85.464844 130.527344 L 91.761719 130.199219 Z M 91.105469 117.609375 " fill-opacity="1" fill-rule="nonzero"/></g></g></g><g clip-path="url(#b606cf0706)"><g clip-path="url(#a500e9da73)"><g clip-path="url(#331068ed29)"><path fill="#4ffaff" d="M 109 97.742188 L 109.324219 104.03125 L 115.621094 103.707031 L 115.289062 97.410156 L 109 97.742188 L 108.667969 91.445312 L 114.964844 91.117188 L 114.632812 84.820312 L 114.308594 78.53125 L 120.601562 78.199219 L 126.898438 77.871094 L 126.566406 71.578125 L 132.863281 71.25 L 133.1875 77.542969 L 139.484375 77.214844 L 139.8125 83.511719 L 133.519531 83.835938 L 133.84375 90.132812 L 127.550781 90.457031 L 127.222656 84.167969 L 120.929688 84.496094 L 121.257812 90.789062 L 127.550781 90.457031 L 127.878906 96.753906 L 121.585938 97.085938 L 121.914062 103.375 L 122.242188 109.671875 L 122.574219 115.964844 L 116.277344 116.292969 L 115.949219 110 L 109.65625 110.328125 L 109.984375 116.621094 L 103.6875 116.949219 L 103.363281 110.660156 L 97.066406 110.984375 L 96.738281 104.691406 L 96.410156 98.394531 L 102.703125 98.066406 Z M 109 97.742188 " fill-opacity="1" fill-rule="nonzero"/></g></g></g><g clip-path="url(#d9e78f7208)"><g clip-path="url(#2ff577f2fb)"><g clip-path="url(#c5e9900a13)"><path fill="#4ffaff" d="M 145.121094 64.296875 L 132.53125 64.953125 L 132.859375 71.25 L 145.449219 70.59375 Z M 145.121094 64.296875 " fill-opacity="1" fill-rule="nonzero"/></g></g></g><g clip-path="url(#5a539535f8)"><g clip-path="url(#88c5342201)"><g clip-path="url(#fb8f10a6d1)"><path fill="#4ffaff" d="M 142.113281 127.566406 L 135.816406 127.894531 L 136.148438 134.1875 L 142.441406 133.859375 Z M 142.113281 127.566406 " fill-opacity="1" fill-rule="nonzero"/></g></g></g><g clip-path="url(#9d4378e323)"><g clip-path="url(#d6b621cced)"><g clip-path="url(#cfeb55d16a)"><path fill="#4ffaff" d="M 145.453125 70.59375 L 139.15625 70.921875 L 139.484375 77.214844 L 145.78125 76.886719 Z M 145.453125 70.59375 " fill-opacity="1" fill-rule="nonzero"/></g></g></g><g clip-path="url(#53b2107945)"><g clip-path="url(#39cf553c3f)"><g clip-path="url(#734b436a95)"><path fill="#4ffaff" d="M 103.6875 116.949219 L 104.019531 123.246094 L 97.722656 123.574219 L 98.050781 129.867188 L 91.761719 130.195312 L 91.429688 123.902344 L 91.101562 117.605469 L 90.769531 111.3125 L 97.066406 110.984375 L 97.394531 117.28125 Z M 103.6875 116.949219 " fill-opacity="1" fill-rule="nonzero"/></g></g></g><g clip-path="url(#814adab637)"><g clip-path="url(#6ba92b3825)"><g clip-path="url(#7240289b2a)"><path fill="#4ffaff" d="M 74.242188 36.441406 L 67.945312 36.769531 L 68.273438 43.0625 L 74.570312 42.734375 Z M 74.242188 36.441406 " fill-opacity="1" fill-rule="nonzero"/></g></g></g><g clip-path="url(#b8786c1d6f)"><g clip-path="url(#248807e7c1)"><g clip-path="url(#834be003fc)"><path fill="#4ffaff" d="M 67.621094 30.476562 L 61.324219 30.804688 L 61.652344 37.101562 L 67.949219 36.769531 Z M 67.621094 30.476562 " fill-opacity="1" fill-rule="nonzero"/></g></g></g><g clip-path="url(#ab925448c5)"><g clip-path="url(#be137fa95a)"><g clip-path="url(#c06ff17475)"><path fill="#4ffaff" d="M 61 24.511719 L 54.703125 24.839844 L 55.03125 31.136719 L 61.328125 30.808594 Z M 61 24.511719 " fill-opacity="1" fill-rule="nonzero"/></g></g></g><g clip-path="url(#834a19beba)"><g clip-path="url(#045907b40c)"><g clip-path="url(#8e2f043304)"><path fill="#4ffaff" d="M 36.804688 44.707031 L 30.511719 45.035156 L 29.527344 26.152344 L 29.195312 19.859375 L 54.371094 18.542969 L 54.703125 24.839844 L 35.816406 25.824219 Z M 36.804688 44.707031 " fill-opacity="1" fill-rule="nonzero"/></g></g></g><g clip-path="url(#3209f4f525)"><g clip-path="url(#e4962cc387)"><g clip-path="url(#9a48d7cb7b)"><path fill="#4ffaff" d="M 128.207031 103.050781 L 127.878906 96.753906 L 134.175781 96.425781 L 134.5 102.71875 L 140.796875 102.390625 L 141.125 108.6875 L 134.832031 109.011719 L 135.492188 121.601562 L 136.148438 134.1875 L 129.851562 134.519531 L 129.195312 121.929688 L 122.898438 122.261719 L 122.574219 115.964844 L 128.863281 115.636719 Z M 128.207031 103.050781 " fill-opacity="1" fill-rule="nonzero"/></g></g></g><g clip-path="url(#202acff225)"><g clip-path="url(#20b0de7357)"><g clip-path="url(#c270bc2a68)"><path fill="#4ffaff" d="M 141.453125 114.980469 L 141.125 108.6875 L 153.714844 108.027344 L 154.039062 114.324219 L 154.371094 120.613281 L 148.078125 120.945312 L 148.40625 127.242188 L 142.113281 127.566406 L 141.78125 121.273438 Z M 141.453125 114.980469 " fill-opacity="1" fill-rule="nonzero"/></g></g></g><g clip-path="url(#50a414e452)"><g clip-path="url(#083f7872dd)"><g clip-path="url(#e9deb73152)"><path fill="#4ffaff" d="M 108.34375 85.152344 L 102.046875 85.480469 L 102.375 91.773438 L 108.671875 91.445312 Z M 108.34375 85.152344 " fill-opacity="1" fill-rule="nonzero"/></g></g></g><g clip-path="url(#dcb01cd3da)"><g clip-path="url(#9103484374)"><g clip-path="url(#466fa19004)"><path fill="#4ffaff" d="M 101.722656 79.1875 L 95.425781 79.515625 L 95.753906 85.808594 L 102.050781 85.480469 Z M 101.722656 79.1875 " fill-opacity="1" fill-rule="nonzero"/></g></g></g><g clip-path="url(#0f5e0f73e8)"><g clip-path="url(#a741c3b818)"><g clip-path="url(#4045d0168f)"><path fill="#4ffaff" d="M 95.09375 73.222656 L 88.800781 73.550781 L 89.128906 79.847656 L 95.421875 79.515625 Z M 95.09375 73.222656 " fill-opacity="1" fill-rule="nonzero"/></g></g></g><g clip-path="url(#2338a411b4)"><g clip-path="url(#7d419aa967)"><g clip-path="url(#73d541c9e8)"><path fill="#4ffaff" d="M 88.472656 67.253906 L 82.179688 67.582031 L 82.507812 73.878906 L 88.800781 73.550781 Z M 88.472656 67.253906 " fill-opacity="1" fill-rule="nonzero"/></g></g></g><g clip-path="url(#e518d2ff73)"><g clip-path="url(#3153689a10)"><g clip-path="url(#329694cb1d)"><path fill="#4ffaff" d="M 81.851562 61.289062 L 75.558594 61.617188 L 75.886719 67.914062 L 82.179688 67.585938 Z M 81.851562 61.289062 " fill-opacity="1" fill-rule="nonzero"/></g></g></g><g clip-path="url(#fb7855c4bb)"><g clip-path="url(#b099b632b8)"><g clip-path="url(#f5a9c21d05)"><path fill="#4ffaff" d="M 75.230469 55.324219 L 68.933594 55.652344 L 69.261719 61.949219 L 75.558594 61.621094 Z M 75.230469 55.324219 " fill-opacity="1" fill-rule="nonzero"/></g></g></g><g clip-path="url(#33688a2978)"><g clip-path="url(#e19147b84b)"><g clip-path="url(#0f47f851f1)"><path fill="#4ffaff" d="M 68.605469 49.355469 L 62.308594 49.6875 L 62.636719 55.980469 L 68.933594 55.652344 Z M 68.605469 49.355469 " fill-opacity="1" fill-rule="nonzero"/></g></g></g><g clip-path="url(#0d69c2b54f)"><g clip-path="url(#ba218bdce0)"><g clip-path="url(#de89904f0a)"><path fill="#4ffaff" d="M 61.984375 43.394531 L 55.6875 43.722656 L 56.015625 50.015625 L 62.3125 49.6875 Z M 61.984375 43.394531 " fill-opacity="1" fill-rule="nonzero"/></g></g></g><g clip-path="url(#7f289ae6a5)"><g clip-path="url(#53e3f2b008)"><g clip-path="url(#ab8273144e)"><path fill="#4ffaff" d="M 55.359375 37.429688 L 49.066406 37.757812 L 49.394531 44.050781 L 55.6875 43.722656 Z M 55.359375 37.429688 " fill-opacity="1" fill-rule="nonzero"/></g></g></g><g clip-path="url(#5b882eb951)"><g clip-path="url(#c0e3a72729)"><g clip-path="url(#da3893d57d)"><path fill="#2e0266" d="M 108.21875 40.507812 L 114.519531 40.324219 L 113.96875 21.421875 L 95.066406 21.976562 L 95.253906 28.277344 L 88.953125 28.460938 L 89.136719 34.761719 L 82.835938 34.949219 L 83.019531 41.242188 L 76.722656 41.429688 L 76.902344 47.730469 L 70.601562 47.914062 L 71.339844 73.113281 L 70.789062 54.214844 L 64.488281 54.398438 L 65.226562 79.601562 L 64.675781 60.699219 L 58.375 60.882812 L 58.554688 67.183594 L 52.253906 67.367188 L 52.441406 73.667969 L 46.140625 73.851562 L 46.328125 80.152344 L 40.027344 80.339844 L 40.394531 92.9375 L 46.695312 92.753906 L 46.636719 90.777344 L 46.878906 99.054688 L 53.179688 98.867188 L 59.480469 98.683594 L 59.292969 92.386719 L 65.59375 92.199219 L 65.414062 85.898438 L 71.710938 85.714844 L 71.527344 79.414062 L 71.34375 73.25 L 71.527344 79.414062 L 77.828125 79.234375 L 77.640625 72.929688 L 83.941406 72.746094 L 83.757812 66.445312 L 83.226562 48.308594 L 83.574219 60.148438 L 83.757812 66.445312 L 90.058594 66.261719 L 89.875 59.960938 L 96.171875 59.777344 L 95.988281 53.476562 L 102.289062 53.292969 L 102.105469 46.988281 L 108.40625 46.808594 Z M 108.21875 40.507812 " fill-opacity="1" fill-rule="nonzero"/></g></g></g><g clip-path="url(#f3926705a4)"><g clip-path="url(#90ccbd9a4a)"><g clip-path="url(#09a0fc73b6)"><path fill="#2e0266" d="M 53.546875 111.46875 L 59.847656 111.285156 L 60.03125 117.585938 L 53.730469 117.769531 Z M 53.546875 111.46875 " fill-opacity="1" fill-rule="nonzero"/></g></g></g><g clip-path="url(#67fa1e2940)"><g clip-path="url(#3edcf90fd6)"><g clip-path="url(#e03a880b23)"><path fill="#2e0266" d="M 40.578125 99.234375 L 46.878906 99.050781 L 47.0625 105.351562 L 40.761719 105.535156 Z M 40.578125 99.234375 " fill-opacity="1" fill-rule="nonzero"/></g></g></g><g clip-path="url(#2041e9cc26)"><g clip-path="url(#cf01e2a01d)"><g clip-path="url(#f941df49ea)"><path fill="#2e0266" d="M 27.609375 87.007812 L 33.910156 86.820312 L 34.097656 93.121094 L 27.796875 93.308594 Z M 27.609375 87.007812 " fill-opacity="1" fill-rule="nonzero"/></g></g></g><g clip-path="url(#d3721c1720)"><g clip-path="url(#74148f80dd)"><g clip-path="url(#0fa519178b)"><path fill="#2e0266" d="M 27.976562 99.605469 L 34.277344 99.417969 L 34.832031 118.316406 L 28.53125 118.503906 Z M 27.976562 99.605469 " fill-opacity="1" fill-rule="nonzero"/></g></g></g><g clip-path="url(#b0728ed519)"><g clip-path="url(#b7df35fdcd)"><g clip-path="url(#fe5110e3be)"><path fill="#2e0266" d="M 15.746094 112.574219 L 22.046875 112.390625 L 22.601562 131.289062 L 16.300781 131.472656 Z M 15.746094 112.574219 " fill-opacity="1" fill-rule="nonzero"/></g></g></g><g clip-path="url(#93ca5290bb)"><g clip-path="url(#20cc1a11ce)"><g clip-path="url(#33b8b54c7a)"><path fill="#2e0266" d="M 14.640625 74.773438 L 20.941406 74.589844 L 21.125 80.890625 L 14.824219 81.074219 Z M 14.640625 74.773438 " fill-opacity="1" fill-rule="nonzero"/></g></g></g><g clip-path="url(#a147784cc5)"><g clip-path="url(#6cbf07f62b)"><g clip-path="url(#58dcb88005)"><path fill="#4ffaff" d="M 59.292969 92.382812 L 65.59375 92.199219 L 65.777344 98.5 L 59.476562 98.683594 Z M 59.292969 92.382812 " fill-opacity="1" fill-rule="nonzero"/></g></g></g><g clip-path="url(#c4e88a0093)"><g clip-path="url(#925d0244dd)"><g clip-path="url(#185b4d4557)"><path fill="#4ffaff" d="M 65.40625 85.902344 L 71.707031 85.71875 L 71.894531 92.019531 L 65.59375 92.203125 Z M 65.40625 85.902344 " fill-opacity="1" fill-rule="nonzero"/></g></g></g><g clip-path="url(#b461b7feee)"><g clip-path="url(#964d98fa2f)"><g clip-path="url(#bfedc2bec6)"><path fill="#4ffaff" d="M 71.527344 79.414062 L 77.828125 79.230469 L 78.011719 85.53125 L 71.710938 85.714844 Z M 71.527344 79.414062 " fill-opacity="1" fill-rule="nonzero"/></g></g></g><g clip-path="url(#350d9673c5)"><g clip-path="url(#26a8b82726)"><g clip-path="url(#4b6a934eee)"><path fill="#4ffaff" d="M 77.640625 72.929688 L 83.941406 72.746094 L 84.125 79.046875 L 77.824219 79.230469 Z M 77.640625 72.929688 " fill-opacity="1" fill-rule="nonzero"/></g></g></g><g clip-path="url(#5995028008)"><g clip-path="url(#b428082c8f)"><g clip-path="url(#95342c8509)"><path fill="#4ffaff" d="M 83.753906 66.449219 L 90.054688 66.261719 L 90.242188 72.5625 L 83.941406 72.75 Z M 83.753906 66.449219 " fill-opacity="1" fill-rule="nonzero"/></g></g></g><g clip-path="url(#f6bc48196d)"><g clip-path="url(#2db5bafd57)"><g clip-path="url(#a7137ca567)"><path fill="#4ffaff" d="M 89.871094 59.960938 L 96.171875 59.777344 L 96.355469 66.078125 L 90.054688 66.261719 Z M 89.871094 59.960938 " fill-opacity="1" fill-rule="nonzero"/></g></g></g><g clip-path="url(#374b8d25f8)"><g clip-path="url(#02609e6681)"><g clip-path="url(#b8e6830b4d)"><path fill="#4ffaff" d="M 95.988281 53.476562 L 102.289062 53.292969 L 102.476562 59.59375 L 96.171875 59.777344 Z M 95.988281 53.476562 " fill-opacity="1" fill-rule="nonzero"/></g></g></g><g clip-path="url(#8227dfc557)"><g clip-path="url(#51ab49ca9e)"><g clip-path="url(#4ffec6a3ef)"><path fill="#4ffaff" d="M 102.105469 46.996094 L 108.40625 46.808594 L 108.589844 53.109375 L 102.289062 53.296875 Z M 102.105469 46.996094 " fill-opacity="1" fill-rule="nonzero"/></g></g></g><g clip-path="url(#2f64943b49)"><g clip-path="url(#9b53714594)"><g clip-path="url(#1f91a89422)"><path fill="#4ffaff" d="M 108.21875 40.507812 L 114.519531 40.320312 L 114.703125 46.625 L 108.402344 46.808594 Z M 108.21875 40.507812 " fill-opacity="1" fill-rule="nonzero"/></g></g></g><g clip-path="url(#5ea1a20bb2)"><g clip-path="url(#62750cbfb0)"><g clip-path="url(#a293713939)"><path fill="#4ffaff" d="M 39.839844 74.035156 L 46.140625 73.851562 L 46.324219 80.152344 L 40.023438 80.335938 Z M 39.839844 74.035156 " fill-opacity="1" fill-rule="nonzero"/></g></g></g><g clip-path="url(#0981322d3a)"><g clip-path="url(#eeb1b2548c)"><g clip-path="url(#2898f37da2)"><path fill="#4ffaff" d="M 45.953125 67.554688 L 52.253906 67.367188 L 52.441406 73.667969 L 46.140625 73.855469 Z M 45.953125 67.554688 " fill-opacity="1" fill-rule="nonzero"/></g></g></g><g clip-path="url(#71ecb6cea1)"><g clip-path="url(#60ef4e3fb4)"><g clip-path="url(#fd6b29e17b)"><path fill="#4ffaff" d="M 52.074219 61.070312 L 58.375 60.886719 L 58.558594 67.1875 L 52.257812 67.371094 Z M 52.074219 61.070312 " fill-opacity="1" fill-rule="nonzero"/></g></g></g><g clip-path="url(#d43f9ad3ba)"><g clip-path="url(#a2f7547846)"><g clip-path="url(#9ae7043571)"><path fill="#4ffaff" d="M 58.1875 54.582031 L 64.488281 54.398438 L 64.671875 60.699219 L 58.371094 60.882812 Z M 58.1875 54.582031 " fill-opacity="1" fill-rule="nonzero"/></g></g></g><g clip-path="url(#812e0976c3)"><g clip-path="url(#d42de403db)"><g clip-path="url(#e7c9e3594e)"><path fill="#4ffaff" d="M 64.300781 48.101562 L 70.601562 47.914062 L 70.789062 54.214844 L 64.488281 54.402344 Z M 64.300781 48.101562 " fill-opacity="1" fill-rule="nonzero"/></g></g></g><g clip-path="url(#239afb2ff2)"><g clip-path="url(#0e1802f337)"><g clip-path="url(#31e193a54e)"><path fill="#4ffaff" d="M 70.417969 41.617188 L 76.71875 41.433594 L 76.902344 47.734375 L 70.601562 47.917969 Z M 70.417969 41.617188 " fill-opacity="1" fill-rule="nonzero"/></g></g></g><g clip-path="url(#e6d57bb302)"><g clip-path="url(#e9c1cfd286)"><g clip-path="url(#c01c0ee821)"><path fill="#4ffaff" d="M 66.328125 117.398438 L 72.628906 117.214844 L 73 129.816406 L 66.699219 130 Z M 66.328125 117.398438 " fill-opacity="1" fill-rule="nonzero"/></g></g></g><g clip-path="url(#399763908a)"><g clip-path="url(#7483897536)"><g clip-path="url(#4b40e6f70c)"><path fill="#4ffaff" d="M 46.878906 99.054688 L 47.066406 105.351562 L 40.765625 105.539062 L 40.582031 99.238281 L 46.878906 99.054688 L 46.695312 92.753906 L 40.394531 92.9375 L 40.214844 86.636719 L 40.027344 80.339844 L 33.726562 80.519531 L 27.425781 80.707031 L 27.242188 74.40625 L 20.941406 74.59375 L 21.128906 80.890625 L 14.828125 81.074219 L 15.007812 87.375 L 21.308594 87.191406 L 21.496094 93.492188 L 27.796875 93.304688 L 27.609375 87.007812 L 33.914062 86.820312 L 34.09375 93.121094 L 27.796875 93.304688 L 27.980469 99.605469 L 34.28125 99.421875 L 34.464844 105.71875 L 34.832031 118.320312 L 41.132812 118.136719 L 40.949219 111.839844 L 47.246094 111.652344 L 47.433594 117.953125 L 53.734375 117.765625 L 53.546875 111.46875 L 59.847656 111.285156 L 59.480469 98.683594 L 53.179688 98.867188 Z M 46.878906 99.054688 " fill-opacity="1" fill-rule="nonzero"/></g></g></g><g clip-path="url(#dd492b5415)"><g clip-path="url(#bd2e015712)"><g clip-path="url(#038ac52b34)"><path fill="#4ffaff" d="M 8.15625 68.660156 L 20.757812 68.289062 L 20.941406 74.589844 L 8.339844 74.960938 Z M 8.15625 68.660156 " fill-opacity="1" fill-rule="nonzero"/></g></g></g><g clip-path="url(#279f49a5c4)"><g clip-path="url(#f46180230a)"><g clip-path="url(#d5c4391d62)"><path fill="#4ffaff" d="M 16.300781 131.472656 L 22.601562 131.289062 L 22.785156 137.589844 L 16.484375 137.773438 Z M 16.300781 131.472656 " fill-opacity="1" fill-rule="nonzero"/></g></g></g><g clip-path="url(#f3a683cc0f)"><g clip-path="url(#7d11bd1bc2)"><g clip-path="url(#f9382fbd04)"><path fill="#4ffaff" d="M 8.339844 74.960938 L 14.640625 74.773438 L 14.824219 81.074219 L 8.523438 81.261719 Z M 8.339844 74.960938 " fill-opacity="1" fill-rule="nonzero"/></g></g></g><g clip-path="url(#a5b15f0d9b)"><g clip-path="url(#da80e555e6)"><g clip-path="url(#6a9437dfcc)"><path fill="#4ffaff" d="M 53.734375 117.765625 L 53.917969 124.066406 L 60.21875 123.886719 L 60.40625 130.183594 L 66.699219 130 L 66.519531 123.699219 L 66.332031 117.398438 L 66.148438 111.097656 L 59.847656 111.285156 L 60.035156 117.585938 Z M 53.734375 117.765625 " fill-opacity="1" fill-rule="nonzero"/></g></g></g><g clip-path="url(#1a25e14365)"><g clip-path="url(#f1e637a1cb)"><g clip-path="url(#4e8703e3e5)"><path fill="#4ffaff" d="M 76.535156 35.128906 L 82.835938 34.945312 L 83.019531 41.246094 L 76.71875 41.429688 Z M 76.535156 35.128906 " fill-opacity="1" fill-rule="nonzero"/></g></g></g><g clip-path="url(#8166fb3fa3)"><g clip-path="url(#cf0c10adb6)"><g clip-path="url(#ce0d78110c)"><path fill="#4ffaff" d="M 82.648438 28.648438 L 88.949219 28.460938 L 89.136719 34.761719 L 82.835938 34.949219 Z M 82.648438 28.648438 " fill-opacity="1" fill-rule="nonzero"/></g></g></g><g clip-path="url(#ae720ed0b7)"><g clip-path="url(#0e99d689f6)"><g clip-path="url(#5f266c158d)"><path fill="#4ffaff" d="M 88.765625 22.164062 L 95.066406 21.980469 L 95.25 28.28125 L 88.949219 28.464844 Z M 88.765625 22.164062 " fill-opacity="1" fill-rule="nonzero"/></g></g></g><g clip-path="url(#4ca435b924)"><g clip-path="url(#595b65ff37)"><g clip-path="url(#a57e69ef45)"><path fill="#4ffaff" d="M 114.519531 40.324219 L 120.820312 40.136719 L 120.265625 21.238281 L 120.082031 14.9375 L 94.882812 15.675781 L 95.066406 21.976562 L 113.96875 21.421875 Z M 114.519531 40.324219 " fill-opacity="1" fill-rule="nonzero"/></g></g></g><g clip-path="url(#6781d9791f)"><g clip-path="url(#b5f2f031d2)"><g clip-path="url(#d08de6e9a1)"><path fill="#4ffaff" d="M 28.167969 105.90625 L 27.980469 99.605469 L 21.679688 99.792969 L 21.867188 106.089844 L 15.5625 106.273438 L 15.75 112.578125 L 22.046875 112.390625 L 22.414062 124.992188 L 22.785156 137.589844 L 29.085938 137.40625 L 28.71875 124.804688 L 35.019531 124.621094 L 34.832031 118.320312 L 28.535156 118.503906 Z M 28.167969 105.90625 " fill-opacity="1" fill-rule="nonzero"/></g></g></g><g clip-path="url(#ac97ac1804)"><g clip-path="url(#46246db97e)"><g clip-path="url(#4f5a05b6df)"><path fill="#4ffaff" d="M 15.933594 118.878906 L 15.75 112.578125 L 3.148438 112.945312 L 3.335938 119.246094 L 3.519531 125.542969 L 9.820312 125.359375 L 10 131.660156 L 16.300781 131.476562 L 16.121094 125.175781 Z M 15.933594 118.878906 " fill-opacity="1" fill-rule="nonzero"/></g></g></g><g clip-path="url(#9fcd0bec88)"><g clip-path="url(#24a128fad4)"><g clip-path="url(#e2740e2ae0)"><path fill="#4ffaff" d="M 46.507812 86.453125 L 52.808594 86.265625 L 52.996094 92.566406 L 46.695312 92.753906 Z M 46.507812 86.453125 " fill-opacity="1" fill-rule="nonzero"/></g></g></g><g clip-path="url(#07486c78de)"><g clip-path="url(#82c3a0347f)"><g clip-path="url(#13ad10acbf)"><path fill="#4ffaff" d="M 52.625 79.96875 L 58.925781 79.785156 L 59.109375 86.085938 L 52.808594 86.269531 Z M 52.625 79.96875 " fill-opacity="1" fill-rule="nonzero"/></g></g></g><g clip-path="url(#2b44a989d4)"><g clip-path="url(#2ad6066271)"><g clip-path="url(#47f2426286)"><path fill="#4ffaff" d="M 58.742188 73.484375 L 65.042969 73.300781 L 65.230469 79.601562 L 58.925781 79.785156 Z M 58.742188 73.484375 " fill-opacity="1" fill-rule="nonzero"/></g></g></g><g clip-path="url(#2b48929fd0)"><g clip-path="url(#6b972d9394)"><g clip-path="url(#0288a79e0d)"><path fill="#4ffaff" d="M 64.855469 67 L 71.15625 66.8125 L 71.34375 73.113281 L 65.042969 73.300781 Z M 64.855469 67 " fill-opacity="1" fill-rule="nonzero"/></g></g></g><g clip-path="url(#353c14f05b)"><g clip-path="url(#2a35e47d4f)"><g clip-path="url(#0269731658)"><path fill="#4ffaff" d="M 70.972656 60.515625 L 77.273438 60.332031 L 77.457031 66.632812 L 71.15625 66.816406 Z M 70.972656 60.515625 " fill-opacity="1" fill-rule="nonzero"/></g></g></g><g clip-path="url(#08b0b9dde8)"><g clip-path="url(#f4951db947)"><g clip-path="url(#e07b3aa934)"><path fill="#4ffaff" d="M 77.085938 54.03125 L 83.386719 53.847656 L 83.570312 60.148438 L 77.269531 60.332031 Z M 77.085938 54.03125 " fill-opacity="1" fill-rule="nonzero"/></g></g></g><g clip-path="url(#f6674cc9b4)"><g clip-path="url(#f0442c4fb5)"><g clip-path="url(#7eff6072a6)"><path fill="#4ffaff" d="M 83.203125 47.546875 L 89.507812 47.359375 L 89.691406 53.660156 L 83.390625 53.847656 Z M 83.203125 47.546875 " fill-opacity="1" fill-rule="nonzero"/></g></g></g><g clip-path="url(#9d5c8f18c6)"><g clip-path="url(#a638cf445d)"><g clip-path="url(#0964464386)"><path fill="#4ffaff" d="M 89.320312 41.0625 L 95.621094 40.878906 L 95.804688 47.179688 L 89.503906 47.363281 Z M 89.320312 41.0625 " fill-opacity="1" fill-rule="nonzero"/></g></g></g><g clip-path="url(#3c28b2c76f)"><g clip-path="url(#a1f5bcee8a)"><g clip-path="url(#d96477431b)"><path fill="#4ffaff" d="M 95.433594 34.578125 L 101.734375 34.394531 L 101.921875 40.695312 L 95.617188 40.878906 Z M 95.433594 34.578125 " fill-opacity="1" fill-rule="nonzero"/></g></g></g></svg>